{"glyphs":{"0":{"ha":713,"x_min":56,"x_max":657,"o":"m 654 380 q 625 221 648 296 q 554 84 602 145 q 433 -5 507 24 q 351 -21 395 -21 q 214 24 270 -21 q 136 110 167 62 q 87 211 105 157 q 63 323 70 264 q 56 446 56 382 q 70 636 57 552 q 124 793 83 721 q 243 907 165 865 q 355 933 292 933 q 463 910 411 933 q 547 846 515 888 q 611 734 587 796 q 647 606 636 672 q 657 464 657 540 q 654 380 657 436 m 461 191 q 505 327 490 253 q 519 481 519 401 q 501 623 518 554 q 450 750 484 692 q 413 790 437 775 q 359 804 388 804 q 338 802 351 804 q 236 720 268 786 q 196 567 205 654 q 187 439 187 476 q 286 138 187 237 q 351 115 308 115 q 382 119 368 115 q 461 191 436 136 z "},"1":{"ha":387,"x_min":125,"x_max":262,"o":"m 262 5 q 260 2 262 3 q 257 0 258 1 l 129 0 l 125 7 l 125 819 q 199 877 154 842 q 249 917 245 913 q 257 921 255 921 q 261 920 260 921 q 262 917 262 918 l 262 5 z "},"2":{"ha":644,"x_min":56,"x_max":589,"o":"m 589 7 l 582 0 l 72 0 q 66 5 66 0 q 74 24 66 9 q 143 142 102 71 q 229 292 184 214 q 312 441 273 370 q 396 597 351 512 q 416 682 416 636 q 393 760 416 730 q 285 814 354 814 q 248 810 266 814 q 56 633 149 787 l 56 822 q 66 842 56 830 q 98 873 77 853 q 185 925 136 907 q 286 943 233 943 q 379 928 337 943 q 517 819 479 893 q 554 676 554 749 q 534 565 554 621 q 488 463 515 509 q 418 348 462 416 q 353 236 375 279 q 319 178 338 209 q 290 131 300 146 l 581 131 l 589 123 l 589 7 z "},"3":{"ha":688,"x_min":56,"x_max":633,"o":"m 627 913 l 625 913 q 624 905 625 909 q 621 897 622 900 q 565 799 600 859 q 490 666 530 738 q 429 557 450 595 q 551 488 494 541 q 623 372 608 435 q 633 286 633 328 q 611 167 633 223 q 546 68 589 111 q 326 -16 460 -16 q 200 7 258 -16 q 65 121 123 38 q 64 131 64 121 q 149 233 64 131 q 169 210 161 219 q 183 193 176 200 q 340 123 260 123 q 376 126 364 123 q 440 156 411 133 q 486 212 469 179 q 500 277 500 240 q 465 376 500 338 q 391 429 434 412 q 297 446 347 446 q 210 432 250 446 q 203 433 205 432 q 200 435 201 434 q 238 502 212 456 q 293 598 264 547 q 356 710 321 650 q 396 782 390 770 q 395 786 396 785 q 392 786 393 786 l 56 786 l 56 917 l 618 917 q 627 913 627 917 z "},"4":{"ha":808,"x_min":14,"x_max":794,"o":"m 794 389 l 794 269 l 789 264 l 602 264 l 596 261 l 596 7 q 596 3 596 5 q 593 0 595 0 l 468 0 q 466 2 466 0 q 465 5 465 4 l 465 261 l 463 264 l 14 264 l 16 275 q 180 462 61 326 q 393 703 300 598 q 528 856 486 808 q 589 925 571 905 q 594 919 593 925 q 596 908 596 912 l 596 395 l 790 395 l 794 389 m 465 395 l 465 590 q 465 594 465 591 q 463 596 464 596 q 457 591 461 596 q 382 502 417 543 q 327 435 348 461 q 293 395 305 409 l 465 395 z "},"5":{"ha":690,"x_min":56,"x_max":635,"o":"m 635 911 l 551 782 l 317 778 l 309 772 l 293 574 l 297 568 q 342 572 320 572 q 429 557 388 572 q 507 514 471 542 q 572 447 543 486 q 627 273 627 376 q 595 138 627 200 q 483 20 555 62 q 322 -22 410 -21 q 180 12 249 -22 q 57 109 112 46 l 56 117 q 103 168 71 132 q 146 216 136 203 q 318 113 231 113 q 349 115 327 113 q 429 160 393 123 q 473 243 465 197 q 476 275 476 266 q 437 380 476 338 q 268 444 380 444 q 208 440 235 444 q 149 427 180 436 l 142 433 q 163 702 152 567 q 180 917 174 836 l 631 917 l 635 911 z "},"6":{"ha":707,"x_min":56,"x_max":652,"o":"m 648 222 q 614 127 642 174 q 546 46 587 80 q 457 -4 506 13 q 370 -18 414 -18 q 250 8 309 -18 q 146 81 191 34 q 78 199 101 130 q 56 345 56 269 q 119 611 56 490 q 187 726 151 671 q 266 828 223 781 q 364 917 309 876 l 507 917 q 505 907 507 908 q 233 539 305 714 l 239 534 q 354 558 294 558 q 470 536 414 558 q 566 472 525 514 q 652 264 652 380 q 648 222 652 256 m 501 203 q 515 269 515 237 q 486 366 515 327 q 351 432 437 432 q 199 375 269 432 q 195 317 195 355 q 253 163 197 212 q 364 114 304 114 q 401 119 385 114 q 460 151 433 129 q 501 203 488 174 z "},"7":{"ha":663,"x_min":56,"x_max":647,"o":"m 647 909 q 565 740 633 882 q 391 385 496 599 q 256 111 286 171 q 201 0 226 50 l 58 0 q 145 177 87 58 q 281 457 203 296 q 437 786 359 618 l 62 786 l 57 790 l 56 911 l 60 917 l 635 917 q 647 909 647 917 z "},"8":{"ha":682,"x_min":56,"x_max":625,"o":"m 625 289 q 611 186 625 232 q 570 102 597 140 q 501 33 542 64 q 335 -20 434 -20 q 232 -1 280 -20 q 106 103 156 28 q 56 261 56 177 q 79 358 57 312 q 138 442 101 404 q 221 507 175 480 q 202 523 210 517 q 189 533 195 528 q 106 699 106 596 q 114 758 106 726 q 195 878 134 827 q 326 935 256 928 q 427 919 382 935 q 506 875 473 904 q 559 806 539 846 q 579 717 579 763 q 565 635 579 674 q 524 567 550 595 q 498 539 514 557 q 465 507 483 522 q 577 411 532 467 q 625 289 623 355 m 427 749 q 394 784 416 771 q 347 796 372 796 q 272 762 302 796 q 256 730 260 749 q 252 686 252 711 q 345 578 257 637 q 414 633 387 597 q 437 701 437 665 q 427 749 437 728 m 479 297 q 440 367 472 339 q 347 435 408 394 q 278 395 330 427 q 221 335 242 372 q 200 258 200 298 q 205 218 200 237 q 239 161 212 187 q 298 126 265 136 q 338 121 315 121 q 443 165 398 121 q 482 264 482 203 q 479 297 482 275 z "},"9":{"ha":705,"x_min":56,"x_max":650,"o":"m 596 793 q 650 578 650 703 q 627 417 650 498 q 567 275 605 335 q 518 198 542 234 q 463 123 494 163 q 402 55 431 83 q 339 0 374 26 q 279 -1 322 -1 q 227 0 250 -1 q 193 0 204 0 l 189 8 q 468 354 374 171 q 472 369 469 357 q 475 383 475 381 q 471 389 477 389 q 350 361 412 361 q 254 377 302 361 q 170 422 205 393 q 56 660 56 517 q 58 700 56 673 q 116 830 65 768 q 235 917 168 892 q 343 937 288 937 q 444 920 395 937 q 530 871 492 903 q 596 793 568 840 m 514 547 q 515 561 515 555 q 515 575 515 566 q 488 713 515 646 q 463 749 479 733 q 429 778 448 766 q 389 796 410 789 q 342 803 370 803 q 273 786 302 803 q 217 729 236 766 q 196 647 198 692 q 224 556 196 597 q 294 498 252 516 q 359 486 328 486 q 514 547 440 486 z "},"¬":{"ha":1042,"x_min":174,"x_max":868,"o":"m 174 0 l 174 868 l 868 868 l 868 0 l 174 0 m 846 22 l 846 846 l 196 846 l 196 22 l 846 22 z "},"Ð":{"ha":937,"x_min":0,"x_max":882,"o":"m 882 460 q 846 282 882 366 q 747 135 810 197 q 600 36 685 73 q 421 0 515 0 l 97 0 q 92 4 92 0 l 92 406 l 7 406 q 0 415 0 406 l 0 532 l 4 538 l 92 538 l 92 911 q 97 917 92 917 l 416 917 q 595 882 510 917 q 745 784 680 848 q 846 637 810 720 q 882 460 882 554 m 753 460 q 726 587 753 528 q 653 691 700 646 q 545 761 606 736 q 416 786 484 786 l 222 786 l 222 538 l 421 538 l 427 533 l 427 411 l 424 406 l 222 406 l 222 131 l 424 131 q 551 157 490 131 q 657 228 612 182 q 728 333 703 274 q 753 460 753 391 z "},"ð":{"ha":693,"x_min":41,"x_max":637,"o":"m 606 917 l 606 802 l 494 743 q 574 611 526 696 q 608 530 593 574 q 630 440 622 487 q 637 345 637 393 q 615 199 637 269 q 547 81 592 130 q 481 27 519 50 q 403 -7 444 5 q 322 -18 362 -18 q 235 -4 279 -18 q 108 84 162 21 q 45 222 54 147 q 41 265 41 248 q 126 472 41 383 q 224 536 168 514 q 339 558 279 558 q 454 534 399 558 l 460 539 q 380 685 430 611 l 216 599 l 212 713 l 318 766 q 187 907 260 837 q 186 917 186 908 l 329 917 q 429 825 385 876 l 606 917 m 493 375 q 342 432 425 432 q 207 366 256 432 q 178 269 178 326 q 192 203 178 231 q 232 152 205 174 q 290 119 258 129 q 329 114 307 114 q 440 163 387 114 q 498 313 498 216 q 493 375 498 347 z "},"Ł":{"ha":711,"x_min":14,"x_max":684,"o":"m 684 5 q 677 0 684 0 l 125 0 q 119 4 119 0 l 119 386 l 18 332 l 14 446 l 119 501 l 119 913 q 125 917 119 917 l 245 917 q 250 913 250 917 l 250 570 l 407 650 l 407 534 l 250 453 l 250 131 l 679 131 q 684 126 684 131 l 684 5 z "},"ł":{"ha":490,"x_min":14,"x_max":476,"o":"m 476 22 q 411 -3 444 5 q 346 -11 378 -11 q 205 32 265 -11 q 153 102 172 57 q 134 196 134 148 l 134 378 l 18 318 l 14 431 l 134 493 l 134 911 l 140 917 l 254 917 l 261 913 l 261 559 l 407 635 l 407 519 l 260 443 q 260 328 260 382 q 260 235 260 274 q 261 196 260 197 q 284 143 267 168 q 332 113 302 117 q 357 110 349 110 q 471 163 413 110 q 476 157 476 163 l 476 22 z "},"Š":{"ha":652,"x_min":40,"x_max":597,"o":"m 579 379 q 597 272 597 330 q 578 164 597 216 q 522 75 559 113 q 421 7 479 32 q 304 -17 363 -17 q 199 3 247 -17 q 132 43 163 17 q 77 104 100 70 q 40 176 53 138 l 146 249 q 158 225 151 240 q 167 205 164 210 q 215 153 185 175 q 283 121 245 130 q 314 118 302 118 q 382 134 350 118 q 433 180 415 151 q 461 278 461 228 q 431 359 461 328 q 380 400 408 383 q 336 427 353 418 q 269 459 319 435 q 203 490 218 482 q 115 552 153 518 q 65 631 78 587 q 56 699 56 662 q 100 832 56 777 q 297 929 178 929 q 359 922 334 929 q 456 873 408 911 q 525 793 505 836 q 471 757 509 781 q 415 720 433 732 q 300 793 366 793 q 271 789 286 793 q 227 763 246 784 q 204 718 208 743 q 257 616 204 644 q 335 581 262 614 q 450 525 409 548 q 526 466 491 502 q 579 379 561 431 m 278 999 q 265 994 275 994 l 260 1000 l 40 1235 l 182 1236 l 268 1141 l 354 1236 l 494 1236 l 278 999 z "},"š":{"ha":586,"x_min":56,"x_max":557,"o":"m 458 18 q 294 -14 389 -14 q 177 -1 236 -14 q 68 37 117 12 l 64 43 l 64 174 q 106 158 79 168 q 153 139 132 147 q 313 104 233 104 q 350 107 326 104 q 394 122 373 109 q 424 155 414 134 q 427 174 427 161 q 414 208 427 196 q 361 245 391 234 q 282 263 330 256 q 211 277 235 270 q 117 324 159 293 q 62 399 76 355 q 56 449 56 419 q 72 523 56 488 q 119 581 88 558 q 294 631 190 631 q 490 583 400 631 l 490 452 q 452 467 477 456 q 410 485 427 478 q 342 506 373 498 q 282 514 311 514 q 214 498 242 514 q 182 454 182 480 q 189 435 182 444 q 285 383 216 396 q 310 379 295 381 q 343 375 325 378 q 399 366 377 370 q 504 309 457 349 q 557 214 550 269 q 458 18 557 62 m 300 681 q 288 676 297 676 l 282 681 l 62 917 l 204 917 l 290 823 l 378 917 l 517 917 l 300 681 z "},"Ý":{"ha":802,"x_min":0,"x_max":802,"o":"m 802 908 q 670 736 747 836 q 564 597 594 637 q 468 472 533 557 l 468 -1 l 338 -1 l 338 472 q 220 626 283 545 q 108 771 158 707 q 0 905 58 835 q 8 916 0 910 l 157 916 l 165 913 q 274 771 225 837 q 400 603 323 706 l 406 603 q 458 672 439 648 q 513 746 476 697 q 572 824 550 795 q 639 908 594 852 q 657 916 644 916 l 798 916 q 802 908 802 916 m 675 1181 l 673 1065 l 418 933 l 418 1046 l 675 1181 z "},"ý":{"ha":721,"x_min":14,"x_max":721,"o":"m 721 615 q 644 474 703 583 q 544 290 585 366 q 431 79 503 214 q 317 -143 359 -57 q 205 -266 278 -220 q 43 -313 132 -313 l 37 -307 l 37 -197 q 175 -136 136 -197 q 213 -76 189 -115 q 252 -6 237 -37 q 279 58 268 24 l 286 78 q 157 333 254 141 q 14 615 59 526 l 143 615 q 157 614 157 615 q 164 604 158 614 l 355 214 l 366 218 q 432 343 387 259 q 520 509 477 427 q 574 610 564 591 q 587 615 575 615 l 721 615 m 619 916 l 619 800 l 364 667 l 364 779 l 619 916 z "},"Þ":{"ha":746,"x_min":97,"x_max":692,"o":"m 665 338 q 555 225 629 258 q 374 189 481 193 l 231 189 l 229 184 l 229 4 q 225 -1 229 -1 l 102 -1 q 97 5 97 -1 l 97 911 q 103 917 97 917 l 224 917 q 228 913 228 917 l 229 749 l 437 749 q 627 659 549 749 q 692 467 692 585 q 665 338 692 398 m 538 395 q 553 458 553 425 q 525 553 553 507 q 379 616 486 612 q 322 618 379 618 q 228 618 266 618 l 229 319 l 368 319 q 538 395 499 330 z "},"þ":{"ha":764,"x_min":83,"x_max":708,"o":"m 663 132 q 541 21 616 60 q 380 -17 466 -17 q 306 -9 351 -17 q 281 -3 290 -6 q 254 9 273 1 q 220 24 235 18 q 214 21 214 24 l 214 -168 l 210 -174 l 89 -174 l 83 -167 l 83 737 l 89 743 l 208 743 q 214 737 214 743 l 214 570 q 257 595 235 583 q 300 614 279 608 q 389 627 342 627 q 534 592 465 627 q 652 493 604 557 q 708 306 708 420 q 663 132 708 204 m 571 261 q 575 301 575 279 q 543 407 575 361 q 460 479 512 454 q 383 496 422 496 q 214 427 294 496 l 214 172 q 383 113 306 113 q 431 118 408 113 q 520 171 480 129 q 571 261 559 212 z "},"Ž":{"ha":846,"x_min":41,"x_max":804,"o":"m 804 4 q 799 0 804 0 l 66 0 q 41 3 46 0 q 43 13 41 8 q 45 20 44 18 q 559 779 385 534 q 557 785 559 784 q 553 786 555 786 l 75 786 q 71 790 71 786 l 71 911 q 77 917 71 917 l 799 917 l 799 908 q 677 725 735 812 q 538 514 620 637 q 402 309 456 390 q 285 131 349 228 l 800 131 q 804 125 804 131 l 804 4 m 403 983 q 390 979 400 979 l 385 985 l 165 1219 l 307 1221 l 393 1126 l 479 1221 l 619 1221 l 403 983 z "},"ž":{"ha":623,"x_min":41,"x_max":581,"o":"m 581 611 q 483 462 526 525 q 369 295 441 399 q 260 138 296 190 l 260 131 q 489 134 416 134 q 526 133 509 133 q 570 131 543 132 l 578 125 l 576 5 l 570 0 q 457 0 517 0 q 343 0 396 0 q 248 -1 291 -1 q 153 -1 205 -1 q 41 0 78 -1 l 41 9 q 131 144 43 12 q 281 373 218 276 q 349 485 343 469 l 69 485 l 64 489 l 62 610 l 69 615 q 224 614 126 614 q 420 614 322 614 q 575 614 518 614 l 581 611 m 297 679 q 285 675 296 675 l 281 679 l 61 916 l 201 916 l 289 822 l 375 916 l 515 916 l 297 679 z "},"½":{"ha":1292,"x_min":14,"x_max":1278,"o":"m 1278 917 l 950 0 l 814 0 l 663 361 l 533 0 l 397 0 l 14 917 l 165 917 l 463 192 l 586 543 l 431 917 l 582 917 l 656 739 l 718 917 l 861 917 l 730 554 l 879 192 l 1135 917 l 1278 917 z "},"¼":{"ha":885,"x_min":97,"x_max":869,"o":"m 222 0 l 103 0 q 97 4 97 0 l 97 911 q 103 917 97 917 l 224 917 q 228 913 228 917 l 228 543 l 602 903 q 615 908 607 908 l 794 908 q 800 903 800 908 q 798 897 800 900 l 408 522 l 865 8 q 867 6 865 7 q 869 3 868 5 q 864 0 869 0 l 696 0 q 689 2 693 0 q 684 5 686 4 l 228 513 l 228 7 q 226 3 228 7 q 222 0 224 0 z "},"¹":{"ha":977,"x_min":61,"x_max":893,"o":"m 893 89 q 713 0 817 26 q 546 -22 621 -22 q 402 -3 472 -22 q 271 55 332 16 q 164 153 210 95 q 87 294 114 217 q 61 454 61 370 q 81 595 61 524 q 148 735 101 668 q 259 850 195 802 q 397 920 324 898 q 554 939 463 939 q 639 935 599 939 q 760 909 701 928 q 873 859 819 890 l 873 701 q 777 754 831 730 q 664 792 722 779 q 549 806 607 806 q 353 749 435 806 q 270 668 303 715 q 220 566 236 621 q 204 450 204 511 q 208 389 204 420 q 238 299 214 344 q 298 218 262 255 q 380 153 335 180 q 469 115 425 126 q 555 106 510 106 q 760 161 665 106 q 761 315 760 216 q 761 439 761 413 q 761 484 761 466 l 890 484 l 893 479 l 893 89 z "},"¾":{"ha":1475,"x_min":41,"x_max":1406,"o":"m 1406 5 q 1403 1 1406 2 q 1400 0 1401 0 l 1280 0 q 1275 4 1275 0 l 1275 33 q 1189 -2 1234 9 q 1096 -14 1145 -14 q 979 7 1034 -14 q 867 90 913 33 q 821 210 821 146 l 821 615 l 947 615 l 951 606 l 951 224 q 995 150 960 181 q 1079 111 1031 119 q 1111 109 1102 109 q 1272 174 1194 109 l 1272 610 q 1275 614 1272 612 q 1279 615 1278 615 l 1400 615 l 1406 607 l 1406 5 m 1096 -239 q 981 -265 1046 -265 q 850 -239 918 -265 q 699 -173 783 -211 q 511 -89 614 -136 q 351 -16 407 -42 q 254 1 300 -12 q 121 88 179 24 q 49 228 63 152 q 41 302 41 258 q 78 457 41 386 q 186 575 114 528 q 276 614 225 601 q 376 628 326 628 q 513 600 451 628 q 596 541 555 581 q 660 457 637 500 q 690 318 690 398 q 623 110 690 193 q 536 33 587 64 q 943 -154 794 -96 q 1002 -167 973 -167 q 1093 -144 1036 -167 q 1095 -201 1093 -175 q 1096 -239 1096 -228 m 539 215 q 559 307 559 254 q 533 408 559 366 q 460 480 506 455 q 359 507 414 506 q 211 428 271 507 q 171 302 171 376 q 199 204 171 245 q 271 134 229 159 q 364 110 313 110 q 399 113 386 110 q 480 148 441 120 q 539 215 518 176 z "},"³":{"ha":701,"x_min":0,"x_max":0,"o":""},"²":{"ha":418,"x_min":0,"x_max":0,"o":""},"¦":{"ha":325,"x_min":97,"x_max":228,"o":"m 228 5 q 222 0 228 0 l 103 0 q 97 4 97 0 l 97 425 q 104 431 97 431 l 224 431 q 228 427 228 431 l 228 5 m 228 490 q 222 485 228 485 l 102 485 q 97 489 97 485 l 97 909 q 103 916 97 916 l 224 916 q 228 909 228 916 l 228 490 z "},"−":{"ha":489,"x_min":64,"x_max":407,"o":"m 407 411 l 404 406 l 71 406 q 64 415 64 406 l 64 532 l 69 538 l 403 538 l 407 533 l 407 411 z "},"×":{"ha":690,"x_min":86,"x_max":625,"o":"m 599 664 l 422 436 l 625 184 l 463 184 l 347 351 l 233 186 l 89 186 q 86 189 86 186 q 88 193 86 189 q 90 199 90 197 l 268 433 q 221 495 249 458 q 144 594 193 532 q 92 663 96 656 q 90 671 90 664 l 243 671 l 349 528 l 458 671 l 597 671 q 599 664 599 671 z "}," ":{"ha":386,"x_min":0,"x_max":0,"o":""},"!":{"ha":310,"x_min":69,"x_max":240,"o":"m 222 782 q 211 518 218 640 q 201 325 205 396 q 195 216 197 253 l 117 216 q 102 463 111 298 q 92 782 94 627 l 92 921 l 222 921 l 222 782 m 240 66 l 240 68 q 217 45 231 59 q 187 15 203 31 q 157 -16 171 -1 l 150 -16 q 103 33 132 3 q 71 64 75 62 q 69 71 69 65 l 153 154 q 154 156 153 155 q 157 157 155 157 q 160 154 156 157 l 239 74 q 240 70 239 72 q 240 66 240 68 z "},"\"":{"ha":509,"x_min":25,"x_max":467,"o":"m 467 836 q 445 737 465 775 q 375 675 425 699 q 254 646 308 646 l 254 653 q 319 718 302 675 q 336 822 336 761 l 336 914 q 342 917 336 917 l 461 917 q 467 911 467 917 l 467 836 m 231 803 q 210 709 227 747 q 153 643 193 670 q 28 603 95 605 q 26 605 28 604 q 25 607 25 606 q 31 610 25 610 q 85 673 73 635 q 97 774 97 712 q 100 911 100 854 q 103 917 100 917 l 224 917 q 231 911 231 917 l 231 803 z "},"#":{"ha":764,"x_min":56,"x_max":708,"o":"m 708 301 q 704 296 708 296 l 585 296 l 585 164 q 579 158 585 158 l 460 158 q 454 163 454 158 l 454 296 l 322 296 l 322 164 q 317 158 322 158 l 196 158 q 192 163 192 158 l 192 296 l 61 296 q 56 301 56 296 l 56 422 q 60 427 56 427 l 192 427 l 192 559 l 61 559 q 56 566 56 559 l 56 686 q 60 690 56 690 l 192 690 l 192 815 q 197 819 192 819 l 317 819 q 322 815 322 819 l 322 690 l 454 690 l 454 815 q 460 819 454 819 l 581 819 q 585 815 585 819 l 585 690 l 703 690 q 708 685 708 690 l 708 566 q 704 559 708 559 l 585 559 l 585 427 l 703 427 q 708 421 708 427 l 708 301 m 454 427 l 454 559 l 322 559 l 322 427 l 454 427 z "},"$":{"ha":614,"x_min":56,"x_max":558,"o":"m 557 361 q 558 334 558 351 q 533 232 558 277 q 458 164 507 186 q 367 138 414 143 l 367 7 q 361 1 367 1 l 240 1 q 236 5 236 1 l 236 135 q 69 183 140 146 l 65 191 l 65 325 q 105 310 87 317 q 157 289 122 303 q 313 256 237 256 q 350 258 326 256 q 419 304 399 263 q 422 321 422 310 q 411 353 422 339 q 358 389 388 378 q 281 406 328 399 q 212 419 235 413 q 118 468 159 437 q 62 543 77 499 q 56 591 56 568 q 73 668 56 631 q 121 726 90 704 q 235 772 169 760 l 235 913 q 240 918 235 918 l 361 918 q 367 914 367 918 l 367 771 q 492 728 444 755 l 492 590 q 443 611 474 597 q 407 625 412 624 q 283 654 330 654 q 218 639 248 654 q 196 621 204 632 q 187 597 187 610 q 193 582 187 590 q 244 543 214 553 q 329 526 275 532 q 399 514 382 519 q 504 456 457 497 q 557 361 550 416 z "},"%":{"ha":1006,"x_min":41,"x_max":964,"o":"m 964 211 q 948 129 964 167 q 903 62 932 92 q 835 16 873 33 q 754 0 796 0 q 673 16 712 0 q 605 62 634 33 q 559 130 576 91 q 543 211 543 169 q 559 291 543 252 q 605 359 575 330 q 673 405 634 389 q 754 421 711 421 q 835 405 797 421 q 903 359 873 389 q 948 292 932 330 q 964 211 964 255 m 463 705 q 447 624 463 663 q 401 556 431 586 q 333 511 372 527 q 253 494 294 494 q 172 511 211 494 q 104 556 133 527 q 58 624 75 585 q 41 705 41 663 q 58 786 41 748 q 103 854 74 825 q 171 900 133 884 q 253 916 208 916 q 334 900 296 916 q 401 854 371 884 q 447 786 431 825 q 463 705 463 748 m 869 917 l 258 0 l 113 0 l 111 8 l 717 917 l 869 917 m 860 211 q 846 263 860 239 q 807 302 831 288 q 754 317 782 317 q 679 286 709 317 q 648 211 648 254 q 679 137 648 168 q 754 106 710 106 q 807 120 782 106 q 846 159 831 134 q 860 211 860 183 m 358 705 q 344 758 358 733 q 305 797 330 783 q 253 811 281 811 q 178 780 208 811 q 147 705 147 749 q 178 631 147 662 q 253 600 209 600 q 305 614 281 600 q 344 653 330 629 q 358 705 358 677 z "},"&":{"ha":920,"x_min":41,"x_max":878,"o":"m 878 8 q 854 0 876 0 l 685 0 q 574 103 580 103 q 462 14 524 44 q 329 -17 399 -17 q 269 -11 296 -17 q 146 48 202 3 q 62 158 90 93 q 41 264 41 210 q 125 465 41 386 q 195 507 155 493 q 185 516 191 509 q 170 534 180 522 q 158 549 160 546 q 110 700 110 611 q 135 804 110 762 q 225 899 168 864 q 350 933 283 933 q 400 928 366 933 q 547 836 494 909 q 591 693 591 772 q 578 610 591 648 q 544 551 567 578 q 489 502 520 524 q 427 469 458 481 q 461 427 429 464 q 525 357 494 391 q 559 321 557 323 q 588 356 573 335 q 618 402 602 376 q 646 452 633 429 q 667 489 659 475 l 819 489 q 823 485 823 489 q 818 471 823 481 q 743 356 790 428 q 657 227 696 285 q 711 172 662 221 q 815 69 761 122 q 878 8 869 16 m 433 653 q 444 700 444 675 q 431 747 444 729 q 350 789 402 789 q 322 785 336 789 q 284 763 300 779 q 262 724 268 746 q 260 697 260 714 q 275 636 260 665 q 321 574 291 608 q 385 602 351 578 q 433 653 418 625 m 469 211 q 397 289 450 232 q 317 374 345 345 q 290 404 290 404 q 274 396 286 402 q 252 381 262 389 q 236 368 241 373 q 192 264 192 326 q 197 224 192 242 q 232 169 205 193 q 289 135 258 144 q 329 127 314 127 q 469 211 404 127 z "},"'":{"ha":275,"x_min":28,"x_max":233,"o":"m 233 913 l 233 761 q 221 710 233 739 q 191 665 210 682 q 60 623 137 623 q 31 624 40 623 q 28 631 28 625 q 61 653 51 644 q 93 700 82 669 q 103 762 103 731 l 103 911 q 109 917 103 917 l 229 917 q 233 913 233 917 z "},"(":{"ha":395,"x_min":56,"x_max":353,"o":"m 353 -228 q 309 -229 340 -229 q 258 -229 278 -229 q 215 -229 238 -229 q 69 201 102 -37 q 56 407 56 298 q 73 631 56 522 q 122 843 90 740 q 205 1042 155 945 l 342 1042 q 311 972 329 1008 q 241 801 271 888 q 193 624 210 713 q 176 441 176 535 q 182 340 176 387 q 203 150 182 245 q 260 -35 224 54 q 342 -208 296 -125 q 348 -217 343 -212 q 353 -228 353 -223 z "},")":{"ha":396,"x_min":41,"x_max":340,"o":"m 306 705 q 340 403 340 560 q 328 214 340 307 q 292 30 316 121 q 232 -139 267 -61 q 184 -232 204 -203 q 144 -232 160 -232 q 110 -233 129 -233 q 50 -229 79 -233 q 47 -224 47 -229 q 50 -214 47 -218 q 215 403 215 64 q 205 562 215 489 q 174 722 195 642 q 122 877 153 802 q 50 1021 92 951 q 41 1039 41 1037 q 61 1042 41 1042 l 175 1042 q 252 888 221 975 q 306 705 283 802 z "},"*":{"ha":543,"x_min":39,"x_max":501,"o":"m 501 603 l 450 513 q 448 510 450 512 q 446 509 446 509 q 441 511 444 509 l 302 629 q 297 625 297 629 l 332 450 q 331 447 332 449 q 328 446 331 446 q 298 444 323 446 q 256 443 272 443 q 216 446 239 443 q 212 448 213 446 q 211 452 211 450 q 229 557 218 494 q 243 628 240 621 q 237 632 243 632 q 157 566 214 614 q 97 515 100 518 q 90 517 92 515 l 41 608 q 45 611 41 610 l 218 682 q 122 720 184 695 q 43 753 60 744 q 39 758 39 755 q 40 763 39 760 q 43 766 42 766 q 96 851 85 831 l 102 851 q 166 797 118 838 q 243 736 214 756 q 248 741 248 736 q 221 913 238 784 q 225 917 221 917 l 322 917 q 328 911 328 917 q 301 739 305 751 q 307 732 302 732 l 444 844 q 450 843 447 844 l 498 754 q 497 750 498 751 q 496 747 496 748 q 412 713 467 735 q 326 681 357 691 q 413 645 359 667 q 497 608 466 623 q 501 603 501 607 z "},"+":{"ha":538,"x_min":56,"x_max":482,"o":"m 482 358 l 479 353 l 330 353 l 330 207 q 321 201 330 201 l 204 201 l 199 205 l 199 353 l 62 353 q 56 363 56 353 l 56 479 l 60 485 l 199 485 l 199 623 l 203 627 l 325 627 l 330 624 l 330 485 l 476 485 l 482 481 l 482 358 z "},",":{"ha":275,"x_min":28,"x_max":233,"o":"m 233 123 l 233 0 q 221 -51 233 -22 q 191 -96 210 -79 q 62 -139 138 -139 q 31 -136 52 -139 q 28 -131 28 -136 q 61 -109 28 -130 q 93 -60 83 -90 q 103 1 103 -29 l 103 123 q 109 127 103 127 l 229 127 q 233 123 233 127 z "},"-":{"ha":538,"x_min":56,"x_max":482,"o":"m 482 244 l 479 240 l 62 240 q 56 250 56 240 l 56 367 l 60 371 l 476 371 l 482 368 l 482 244 z "},".":{"ha":214,"x_min":41,"x_max":172,"o":"m 172 5 q 167 0 172 0 l 46 0 q 41 4 41 0 l 41 126 q 47 131 41 131 l 168 131 q 172 126 172 131 l 172 5 z "},"/":{"ha":325,"x_min":14,"x_max":311,"o":"m 311 911 q 269 687 294 807 q 204 390 243 566 q 150 145 165 213 q 114 -39 136 77 q 111 -40 113 -39 q 107 -41 109 -41 l 17 -41 q 14 -32 14 -41 l 214 917 l 309 917 q 311 911 307 917 z "},":":{"ha":262,"x_min":65,"x_max":197,"o":"m 196 424 q 191 419 196 419 l 69 419 q 65 424 65 419 l 65 545 q 71 550 65 550 l 191 550 q 196 545 196 550 l 196 424 m 197 5 q 192 0 197 0 l 71 0 q 66 4 66 0 l 66 126 q 72 131 66 131 l 192 131 q 197 126 197 131 l 197 5 z "},";":{"ha":264,"x_min":29,"x_max":235,"o":"m 235 424 q 229 419 235 419 l 110 419 q 104 424 104 419 l 104 545 q 110 550 104 550 l 231 550 q 235 545 235 550 l 235 424 m 235 123 l 235 0 q 223 -50 235 -22 q 191 -96 212 -78 q 64 -139 140 -139 q 32 -136 54 -139 q 29 -131 29 -136 q 62 -109 30 -130 q 94 -60 84 -90 q 104 1 104 -29 l 104 123 q 110 127 104 127 l 231 127 q 235 123 235 127 z "},"<":{"ha":647,"x_min":56,"x_max":591,"o":"m 591 32 l 56 250 l 56 370 l 591 593 l 591 456 l 231 314 l 591 167 l 591 32 z "},"=":{"ha":539,"x_min":56,"x_max":484,"o":"m 484 489 l 481 485 l 64 485 q 57 493 57 485 l 57 610 l 62 615 l 479 615 l 484 612 l 484 489 m 481 227 l 479 222 l 62 222 q 56 232 56 222 l 56 349 l 60 353 l 476 353 l 481 350 l 481 227 z "},">":{"ha":647,"x_min":56,"x_max":591,"o":"m 591 250 l 56 32 l 56 167 l 416 314 l 56 456 l 56 593 l 591 370 l 591 250 z "},"?":{"ha":550,"x_min":28,"x_max":509,"o":"m 479 828 q 509 707 509 774 q 495 621 509 662 q 456 553 481 581 q 425 519 439 534 q 388 485 410 505 q 348 451 366 466 q 310 418 330 436 q 292 370 292 404 q 296 343 292 355 q 345 285 308 311 l 265 199 q 205 250 231 215 q 161 367 161 307 q 167 408 161 390 q 200 473 176 444 q 269 541 224 503 q 328 596 313 580 q 379 697 379 648 q 364 754 379 725 q 326 790 351 778 q 269 802 301 802 q 233 799 258 802 q 189 780 210 795 q 151 744 167 765 q 125 701 134 723 q 28 778 50 758 q 111 886 49 842 q 244 933 172 929 q 257 934 252 934 q 272 935 263 935 q 395 908 341 935 q 479 828 448 882 m 350 72 l 350 74 q 309 33 330 54 q 267 -9 288 12 l 260 -9 q 211 39 241 9 q 180 69 180 69 q 179 77 179 71 l 262 160 q 264 162 263 161 q 267 163 265 163 q 271 160 268 163 l 350 79 l 350 72 z "},"@":{"ha":1107,"x_min":56,"x_max":1051,"o":"m 1002 703 q 1030 637 1019 669 q 1046 576 1040 606 q 1051 513 1051 546 q 1035 405 1051 456 q 990 313 1018 353 q 926 245 962 272 q 778 193 855 193 q 702 208 736 193 q 653 243 667 223 q 636 232 643 237 q 619 218 630 227 q 509 191 567 191 q 437 204 469 191 q 375 263 399 227 q 350 339 350 299 q 431 471 350 421 q 644 524 501 516 q 646 551 644 543 q 636 585 646 572 q 542 631 603 631 q 498 625 517 631 q 460 611 478 620 q 411 586 441 603 q 374 567 380 570 q 421 684 392 626 q 555 713 485 713 q 626 703 593 713 q 684 673 659 694 q 734 608 715 648 q 746 546 746 585 q 743 492 746 529 q 741 435 741 456 q 738 412 739 429 q 736 387 736 394 q 774 311 736 313 q 856 334 817 311 q 917 399 895 357 q 940 493 940 440 q 900 633 940 564 q 838 714 876 677 q 755 778 800 751 q 661 817 710 804 q 558 831 611 831 q 482 822 518 831 q 297 726 374 799 q 191 545 221 652 q 179 463 179 504 q 217 299 179 380 q 318 164 255 218 q 590 69 429 69 q 779 93 672 69 q 751 28 777 88 q 725 -37 726 -32 q 599 -53 671 -53 q 448 -33 524 -53 q 304 24 372 -14 q 189 114 237 62 q 116 215 146 160 q 71 331 87 269 q 56 454 56 393 q 75 587 56 522 q 211 818 116 725 q 446 946 307 910 q 558 960 506 960 q 610 957 576 960 q 1002 703 882 925 m 639 315 l 639 443 q 557 429 600 437 q 486 403 514 422 q 454 342 456 382 q 476 300 454 318 q 528 285 499 285 q 553 288 541 285 q 585 296 566 290 q 613 306 604 302 q 639 315 623 309 z "},"A":{"ha":886,"x_min":14,"x_max":872,"o":"m 872 7 q 869 0 872 0 l 739 0 q 732 3 733 0 l 646 220 l 241 220 l 155 3 q 149 0 154 0 l 17 0 q 14 7 14 0 l 378 911 q 380 915 378 913 q 385 917 383 917 l 503 917 q 510 911 507 917 l 872 7 m 593 350 l 443 724 l 294 350 l 593 350 z "},"B":{"ha":782,"x_min":97,"x_max":726,"o":"m 720 329 q 726 268 726 295 q 699 154 726 208 q 623 64 672 101 q 416 1 542 1 q 286 1 330 1 q 207 0 242 1 l 97 0 l 97 911 l 102 917 l 265 917 l 319 917 q 477 897 412 917 q 582 815 541 877 q 621 688 621 757 q 606 615 621 650 q 543 533 580 557 q 536 526 536 528 q 542 522 536 524 q 654 450 604 507 q 720 329 705 394 m 464 710 q 301 787 443 787 q 261 787 277 787 q 228 786 246 787 l 228 562 l 315 562 q 397 574 371 567 q 446 608 424 581 q 469 675 469 638 q 464 710 469 684 m 555 345 q 484 410 540 389 q 351 433 427 430 l 228 433 l 228 134 q 286 134 259 134 q 358 134 312 134 q 425 135 404 134 q 549 197 513 142 q 570 269 570 232 q 555 345 570 300 z "},"C":{"ha":940,"x_min":56,"x_max":857,"o":"m 857 707 q 851 701 854 701 q 819 715 847 701 q 735 758 781 739 q 637 788 688 777 q 539 799 586 799 q 438 786 488 799 q 350 746 389 772 q 233 620 273 697 q 192 450 192 542 q 193 416 192 428 q 268 248 201 327 q 424 136 334 169 q 538 117 477 117 q 647 133 593 117 q 749 175 701 149 q 852 237 798 201 q 854 222 854 237 l 854 85 q 707 11 791 37 q 534 -16 622 -16 q 424 -4 479 -16 q 321 31 368 8 q 190 126 249 66 q 97 260 132 186 q 57 414 63 335 q 56 457 56 428 q 109 682 56 578 q 265 859 163 785 q 543 937 376 937 q 707 915 627 937 q 848 851 786 893 l 856 840 l 857 707 z "},"D":{"ha":943,"x_min":97,"x_max":888,"o":"m 888 460 q 852 282 888 366 q 753 135 816 197 q 606 36 691 73 q 427 0 521 0 l 102 0 q 97 4 97 0 l 97 911 q 103 917 97 917 l 422 917 q 517 909 474 917 q 595 886 559 901 q 669 847 630 871 q 784 747 735 806 q 861 614 833 688 q 888 460 888 541 m 758 460 q 732 587 758 528 q 659 691 705 646 q 550 761 612 736 q 421 786 489 786 l 228 786 l 228 131 l 429 131 q 556 157 495 131 q 663 228 617 182 q 733 333 709 274 q 758 460 758 391 z "},"E":{"ha":749,"x_min":97,"x_max":693,"o":"m 693 4 q 688 -1 693 -1 l 104 -1 q 100 1 102 -1 q 97 4 98 3 l 97 911 q 99 914 98 912 q 103 916 100 916 l 665 916 q 671 911 671 916 l 671 790 q 665 785 671 785 l 239 785 l 228 783 l 228 564 l 551 564 q 555 559 555 564 l 555 439 q 549 433 555 433 l 232 433 q 228 427 228 433 l 228 129 l 689 129 q 693 125 693 129 l 693 4 z "},"F":{"ha":699,"x_min":97,"x_max":671,"o":"m 671 791 q 665 786 671 786 l 239 786 l 228 783 l 228 566 l 551 566 q 555 561 555 566 l 555 440 q 549 435 555 435 l 237 435 q 232 431 235 434 q 228 425 228 429 l 228 5 q 222 0 228 0 l 103 0 q 97 4 97 0 l 97 913 q 103 917 97 917 l 665 917 q 671 913 671 917 l 671 791 z "},"G":{"ha":977,"x_min":61,"x_max":893,"o":"m 893 89 q 713 0 817 26 q 546 -22 621 -22 q 402 -3 472 -22 q 271 55 332 16 q 164 153 210 95 q 87 294 114 217 q 61 454 61 370 q 81 595 61 524 q 148 735 101 668 q 259 850 195 802 q 397 920 324 898 q 554 939 463 939 q 639 935 599 939 q 760 909 701 928 q 873 859 819 890 l 873 701 q 777 754 831 730 q 664 792 722 779 q 549 806 607 806 q 353 749 435 806 q 270 668 303 715 q 220 566 236 621 q 204 450 204 511 q 208 389 204 420 q 238 299 214 344 q 298 218 262 255 q 380 153 335 180 q 469 115 425 126 q 555 106 510 106 q 760 161 665 106 l 760 383 l 754 389 l 583 389 l 582 392 l 582 515 l 890 515 l 893 511 l 893 89 z "},"H":{"ha":942,"x_min":97,"x_max":844,"o":"m 844 5 q 839 1 844 1 l 720 1 q 714 5 714 1 l 714 437 l 233 437 l 228 432 l 228 5 q 222 0 228 0 l 103 0 q 97 5 97 0 l 97 913 q 103 918 97 918 l 224 918 q 228 913 228 918 l 228 907 l 229 907 l 229 581 q 232 573 230 578 q 240 568 234 569 l 711 568 l 714 572 l 714 914 q 715 917 715 916 q 720 918 716 918 l 842 918 q 844 917 843 918 q 844 914 844 916 l 844 5 z "},"I":{"ha":325,"x_min":97,"x_max":228,"o":"m 228 5 q 222 0 228 0 l 102 0 q 97 4 97 0 l 97 911 q 103 917 97 917 l 224 917 q 228 913 228 917 l 228 5 z "},"J":{"ha":624,"x_min":41,"x_max":526,"o":"m 526 239 q 421 17 526 87 q 269 -25 357 -25 q 135 9 191 -25 q 70 73 95 35 q 41 151 44 110 q 83 171 64 163 q 155 203 101 178 q 175 152 157 176 q 220 114 193 127 q 269 103 243 103 q 343 123 311 103 q 378 164 366 138 q 393 221 390 191 q 396 304 396 251 l 396 911 l 403 917 l 518 917 q 526 907 524 917 l 526 239 z "},"K":{"ha":876,"x_min":97,"x_max":848,"o":"m 848 9 q 847 0 848 0 l 677 0 q 667 5 672 0 q 577 96 642 31 q 460 213 513 160 q 323 350 408 265 q 235 437 238 435 q 230 435 232 437 q 228 432 229 433 l 228 5 q 222 0 228 0 l 103 0 q 97 4 97 0 l 97 911 q 103 917 97 917 l 224 917 q 228 913 228 917 l 228 603 l 583 903 q 597 908 589 908 l 778 908 q 781 906 779 907 q 782 903 782 905 q 779 897 782 900 l 335 522 l 848 9 z "},"L":{"ha":689,"x_min":97,"x_max":661,"o":"m 661 5 q 656 0 661 0 l 102 0 q 97 4 97 0 l 97 913 q 103 917 97 917 l 224 917 q 228 913 228 917 l 228 131 l 657 131 q 661 126 661 131 l 661 5 z "},"M":{"ha":1111,"x_min":97,"x_max":1014,"o":"m 1014 5 q 1008 0 1014 0 l 889 0 q 884 4 884 0 l 884 720 q 781 588 833 654 q 663 441 729 522 q 564 323 597 361 l 559 323 q 479 425 520 374 q 395 528 439 475 q 310 631 351 582 q 228 728 269 680 l 228 5 q 222 0 228 0 l 103 0 q 97 4 97 0 l 97 911 q 103 917 97 917 l 109 917 l 224 917 l 225 917 q 228 913 228 917 q 405 701 303 826 q 561 507 506 576 q 617 577 574 524 q 706 689 659 631 q 793 799 752 747 q 884 911 834 850 q 889 917 884 917 l 1010 917 q 1014 913 1014 917 l 1014 5 z "},"N":{"ha":1011,"x_min":97,"x_max":914,"o":"m 914 911 l 914 5 q 908 0 914 0 l 777 0 q 771 3 772 0 l 228 703 l 228 5 q 222 0 228 0 l 103 0 q 97 4 97 0 l 97 911 q 103 917 97 917 l 224 917 q 235 911 231 917 l 783 207 l 783 911 q 789 917 783 917 l 908 917 q 914 911 914 917 z "},"O":{"ha":1047,"x_min":56,"x_max":991,"o":"m 939 237 q 866 133 910 181 q 767 51 823 85 q 652 -1 711 17 q 526 -20 592 -18 q 392 0 456 -20 q 269 58 328 20 q 166 148 210 96 q 94 262 121 199 q 56 460 56 352 q 86 634 56 551 q 172 782 116 718 q 336 902 244 861 q 532 942 427 942 q 612 936 572 942 q 779 868 699 923 q 917 730 859 812 q 973 610 954 679 q 991 469 991 541 q 939 237 991 338 m 825 599 q 783 672 812 635 q 718 737 755 709 q 642 779 682 765 q 524 800 584 800 q 394 774 456 800 q 288 700 332 748 q 199 461 199 603 q 222 330 199 394 q 316 200 250 257 q 458 127 382 143 q 519 122 486 122 q 641 145 584 122 q 746 212 698 169 q 803 284 779 243 q 838 371 827 326 q 850 463 850 417 q 825 599 850 534 z "},"P":{"ha":732,"x_min":97,"x_max":692,"o":"m 665 505 q 556 393 629 425 q 374 357 482 360 l 231 357 l 228 351 l 228 5 l 225 0 l 102 0 q 97 7 97 0 l 97 911 q 99 915 97 913 q 102 917 100 917 l 437 917 q 627 827 549 917 q 675 740 659 790 q 692 635 692 689 q 665 505 692 566 m 536 562 q 553 633 553 593 q 526 725 553 684 q 457 774 503 762 q 347 787 412 787 q 288 787 315 787 q 228 786 262 787 l 228 488 l 368 488 q 473 508 431 492 q 536 562 515 524 z "},"Q":{"ha":1086,"x_min":56,"x_max":1031,"o":"m 1031 86 q 997 45 1030 84 q 943 -18 964 6 l 835 74 q 538 -25 718 -25 q 323 18 425 -25 q 182 118 242 53 q 91 264 123 182 q 56 435 59 346 q 90 622 56 531 q 188 781 124 712 q 334 886 251 849 q 550 930 432 930 q 675 916 613 930 q 792 870 737 901 q 886 794 846 839 q 957 692 927 749 q 1001 575 986 635 q 1015 452 1015 514 q 981 267 1015 351 q 929 172 964 222 l 1031 86 m 847 597 q 787 690 829 646 q 692 761 745 733 q 541 798 623 798 q 397 765 464 798 q 294 686 338 736 q 226 572 250 637 q 203 437 203 507 q 230 312 205 374 q 300 203 255 250 q 406 132 346 156 q 549 104 473 104 q 726 163 663 104 l 647 232 q 691 286 660 250 q 739 342 722 323 q 773 313 751 331 q 822 273 794 294 q 872 453 872 342 q 847 597 872 528 z "},"R":{"ha":814,"x_min":97,"x_max":800,"o":"m 800 5 q 787 0 800 0 l 642 0 q 353 390 639 0 l 228 390 l 228 5 l 224 0 l 100 0 l 97 8 l 97 916 l 107 917 l 271 917 q 442 905 370 917 q 570 851 513 893 q 652 725 627 810 q 663 650 663 685 q 649 567 663 608 q 610 494 635 526 q 565 455 590 469 q 501 424 541 440 l 501 418 q 562 337 520 393 q 646 221 603 281 q 726 109 688 161 q 800 5 763 57 m 510 679 q 476 739 501 716 q 419 771 451 761 q 353 784 388 781 q 271 787 319 787 l 233 787 l 228 783 l 228 524 q 278 523 258 524 q 323 522 299 523 q 413 532 374 522 q 478 568 453 541 q 513 654 513 605 q 510 679 513 663 z "},"S":{"ha":668,"x_min":56,"x_max":612,"o":"m 595 379 q 612 272 612 331 q 593 164 612 216 q 538 75 574 113 q 437 7 495 32 q 319 -17 379 -17 q 214 3 263 -17 q 118 72 162 24 q 56 176 75 119 l 161 249 q 170 232 166 241 q 176 217 174 222 q 182 205 178 211 q 298 121 220 139 q 329 118 319 118 q 398 134 366 118 q 449 180 431 151 q 476 277 476 224 q 446 359 476 328 q 385 408 417 389 q 302 450 353 427 q 220 490 251 473 q 131 553 169 517 q 81 631 92 588 q 71 699 71 664 q 115 832 71 777 q 313 929 194 929 q 375 922 349 929 q 440 895 406 915 q 500 848 474 875 q 541 793 527 821 q 486 757 524 781 q 431 720 448 732 q 315 793 381 793 q 286 789 300 793 q 243 763 262 784 q 220 718 224 743 q 272 616 220 644 q 350 582 277 614 q 465 526 422 549 q 542 466 507 502 q 595 379 576 431 z "},"T":{"ha":772,"x_min":28,"x_max":745,"o":"m 745 790 q 739 786 745 786 q 609 786 661 786 q 511 785 557 785 q 444 785 465 785 l 444 5 q 439 0 444 0 l 318 0 q 314 4 314 0 l 314 786 l 33 786 q 28 790 28 786 l 28 911 q 33 917 28 917 l 741 917 q 745 913 745 917 l 745 790 z "},"U":{"ha":982,"x_min":83,"x_max":899,"o":"m 899 913 l 899 395 q 867 238 899 313 q 780 107 836 163 q 648 20 724 52 q 490 -12 572 -12 q 333 20 408 -12 q 203 107 258 52 q 115 238 147 163 q 83 395 83 313 l 83 911 q 89 917 83 917 l 210 917 q 214 913 214 917 l 214 396 q 251 257 214 321 q 352 156 288 193 q 490 118 415 118 q 630 156 566 118 q 731 257 694 193 q 768 396 768 321 l 768 911 q 774 917 768 917 l 895 917 q 899 913 899 917 z "},"V":{"ha":875,"x_min":14,"x_max":861,"o":"m 861 917 l 533 0 l 397 0 l 14 917 l 165 917 l 463 192 l 718 917 l 861 917 z "},"W":{"ha":1287,"x_min":11,"x_max":1274,"o":"m 1274 917 l 990 5 q 983 0 987 0 l 854 0 q 851 2 852 0 q 850 5 850 4 l 652 648 q 646 643 647 648 q 600 490 631 594 q 525 240 569 386 q 452 4 480 94 q 450 0 450 1 q 444 0 450 0 l 311 0 q 308 0 308 0 q 306 4 307 1 q 263 137 288 60 q 187 375 239 214 q 86 686 135 536 q 14 904 37 836 q 11 914 11 904 q 14 917 11 917 l 168 917 l 368 245 q 372 236 368 245 q 377 245 376 244 q 378 249 377 247 q 399 319 386 276 q 444 465 412 361 q 504 664 475 569 q 574 893 533 759 l 581 901 l 724 901 q 801 665 745 840 q 884 400 857 491 q 926 261 912 309 q 965 387 945 323 q 1045 652 985 452 q 1122 909 1106 852 l 1133 917 l 1274 917 z "},"X":{"ha":983,"x_min":28,"x_max":956,"o":"m 956 0 l 796 0 l 494 372 l 490 372 l 192 0 l 29 0 l 28 7 l 407 485 l 75 909 l 78 917 l 239 917 l 494 599 l 753 917 l 907 917 l 914 911 q 841 816 907 900 q 694 630 774 732 q 579 485 614 528 l 956 0 z "},"Y":{"ha":802,"x_min":0,"x_max":802,"o":"m 802 908 q 670 736 747 836 q 564 597 594 637 q 468 472 533 557 l 468 -1 l 338 -1 l 338 472 q 220 626 283 545 q 108 771 158 707 q 0 905 58 835 q 8 916 0 910 l 157 916 l 165 913 q 274 771 225 837 q 400 603 323 706 l 406 603 q 458 672 439 648 q 513 746 476 697 q 572 824 550 795 q 639 908 594 852 q 657 916 644 916 l 798 916 q 802 908 802 916 z "},"Z":{"ha":846,"x_min":41,"x_max":804,"o":"m 804 4 q 799 0 804 0 l 66 0 q 41 3 46 0 q 43 13 41 8 q 45 20 44 18 q 559 779 385 534 q 557 785 559 784 q 553 786 555 786 l 75 786 q 71 790 71 786 l 71 911 q 77 917 71 917 l 799 917 l 799 908 q 677 725 735 812 q 538 514 620 637 q 402 309 456 390 q 285 131 349 228 l 800 131 q 804 125 804 131 l 804 4 z "},"[":{"ha":400,"x_min":97,"x_max":358,"o":"m 358 1036 l 358 916 q 353 909 358 909 l 240 909 q 231 908 234 909 q 228 905 229 907 l 228 -52 l 354 -52 q 358 -57 358 -52 l 358 -178 q 353 -182 358 -182 l 104 -182 q 100 -180 103 -182 q 97 -178 98 -178 l 97 1036 q 99 1040 98 1038 q 103 1042 100 1042 l 353 1042 q 358 1036 358 1042 z "},"\\":{"ha":775,"x_min":140,"x_max":635,"o":"m 635 0 l 496 0 q 442 130 480 38 q 331 409 404 222 q 217 702 258 595 q 140 914 176 810 q 142 916 141 915 q 143 917 142 916 l 275 917 l 635 0 z "},"]":{"ha":400,"x_min":41,"x_max":302,"o":"m 302 -178 q 299 -180 302 -178 q 297 -182 297 -182 l 47 -182 q 41 -178 41 -182 l 41 -57 q 47 -52 41 -52 l 172 -52 l 172 905 q 168 908 170 907 q 164 909 166 909 l 47 909 q 41 916 41 909 l 41 1036 q 47 1042 41 1042 l 297 1042 q 301 1040 300 1042 q 302 1036 302 1038 l 302 -178 z "},"^":{"ha":624,"x_min":14,"x_max":610,"o":"m 304 779 q 313 782 304 779 q 325 777 319 782 l 610 490 q 607 485 610 485 l 433 485 l 313 604 l 193 485 l 17 485 q 14 490 14 485 l 304 779 z "},"_":{"ha":878,"x_min":-3,"x_max":880,"o":"m 880 -126 l 878 -131 l 3 -131 q -3 -122 -3 -131 l -3 -5 l 1 0 l 876 0 l 880 -3 l 880 -126 z "},"`":{"ha":340,"x_min":41,"x_max":298,"o":"m 41 936 l 41 819 l 297 688 l 298 800 l 41 936 z "},"a":{"ha":623,"x_min":41,"x_max":541,"o":"m 539 5 q 533 0 539 0 l 414 0 q 408 4 408 0 l 408 41 q 395 32 401 37 q 385 25 389 28 q 374 17 381 23 q 239 -17 313 -17 q 150 0 189 -17 q 73 72 103 28 q 41 167 42 115 q 69 259 41 216 q 142 328 97 302 q 260 376 196 362 q 406 395 324 390 q 407 429 406 419 q 396 469 407 455 q 346 510 378 495 q 278 526 313 526 q 227 519 254 526 q 180 503 203 513 q 131 478 158 493 q 72 447 103 463 q 129 591 91 507 q 294 627 208 627 q 454 578 393 627 q 517 498 493 549 q 541 370 541 454 q 540 334 541 347 q 539 304 540 321 l 539 5 m 408 138 l 408 297 q 332 286 364 290 q 268 271 300 281 q 211 245 235 262 q 171 168 173 221 q 199 118 171 136 q 265 100 227 100 q 310 105 285 100 q 363 121 334 111 q 408 138 392 132 z "},"b":{"ha":764,"x_min":97,"x_max":708,"o":"m 703 245 q 666 152 694 197 q 598 70 638 106 q 509 14 558 35 q 374 -12 442 -12 q 231 21 297 -12 q 228 3 228 21 q 226 0 228 2 q 222 -1 224 -1 l 103 -1 q 97 4 97 -1 l 97 911 q 103 916 97 916 l 224 916 q 228 911 228 916 l 228 587 q 239 593 234 590 q 257 602 244 597 q 397 627 321 627 q 497 613 450 627 q 578 571 544 599 q 674 452 640 521 q 708 307 708 382 q 703 245 708 273 m 566 392 q 468 489 530 462 q 395 503 434 503 q 302 482 347 502 q 228 429 257 463 l 228 171 q 309 131 262 146 q 386 118 345 118 q 470 135 431 118 q 538 186 510 152 q 570 246 559 212 q 582 314 582 280 q 566 392 582 356 z "},"c":{"ha":652,"x_min":56,"x_max":596,"o":"m 596 46 q 500 4 554 18 q 389 -11 446 -11 q 215 32 288 -11 q 98 149 141 77 q 56 302 56 220 q 58 347 56 332 q 118 502 72 432 q 239 604 164 572 q 390 633 307 633 q 589 589 495 633 l 595 582 q 593 432 595 489 q 564 449 576 441 q 541 463 552 456 q 517 476 530 469 q 389 505 460 505 q 264 464 311 505 q 193 310 193 402 q 196 273 193 299 q 226 202 202 235 q 286 146 250 169 q 359 117 322 123 q 396 114 385 114 q 587 196 479 114 l 596 199 l 596 46 z "},"d":{"ha":768,"x_min":56,"x_max":671,"o":"m 671 7 l 667 0 l 541 0 q 539 28 541 24 q 533 31 539 31 q 458 -1 498 9 q 372 -11 417 -11 q 203 36 275 -11 q 122 112 156 67 q 72 208 89 156 q 56 317 56 260 q 65 404 56 363 q 110 501 76 455 q 188 577 143 547 q 285 619 233 608 q 379 631 334 631 q 533 595 464 631 q 538 597 536 595 q 541 602 541 600 l 541 917 l 546 922 q 610 922 585 922 q 664 921 635 922 q 668 920 666 921 q 671 918 670 918 l 671 7 m 541 174 q 541 242 541 201 q 540 360 541 283 q 539 447 540 437 q 460 491 508 474 q 367 507 413 507 q 286 489 322 507 q 214 419 245 468 q 183 311 183 370 q 285 143 194 192 q 379 119 328 119 q 541 174 461 119 z "},"e":{"ha":694,"x_min":56,"x_max":639,"o":"m 639 288 l 628 278 q 486 278 559 278 q 304 278 412 278 q 189 279 197 279 q 216 189 189 230 q 392 111 265 111 q 443 114 410 111 q 629 203 517 121 l 636 201 l 636 69 q 512 12 582 33 q 375 -8 443 -8 q 228 22 288 -8 q 140 90 179 46 q 78 190 101 134 q 56 307 56 246 q 57 340 56 329 q 93 452 64 397 q 167 549 121 508 q 268 608 213 590 q 368 624 320 624 q 489 598 433 624 q 581 519 545 572 q 639 288 639 437 m 505 383 q 493 422 505 401 q 464 461 481 443 q 432 488 446 479 q 354 505 397 505 q 253 475 298 505 q 211 432 227 458 q 195 383 196 406 l 505 383 z "},"f":{"ha":546,"x_min":28,"x_max":504,"o":"m 504 489 q 503 486 504 488 q 501 484 503 484 l 268 484 q 262 478 262 484 l 262 4 l 258 0 l 135 0 l 132 4 l 132 484 l 32 484 q 28 489 28 484 l 28 610 q 33 615 28 615 l 131 615 q 132 624 132 615 q 142 743 132 692 q 179 834 151 794 q 256 901 206 875 q 382 926 305 926 q 504 911 440 926 l 504 785 q 503 781 504 783 q 497 778 502 778 q 395 803 448 803 q 323 785 349 803 q 274 722 286 760 q 262 623 262 684 q 265 618 262 621 q 272 615 267 615 l 501 615 l 504 610 l 504 489 z "},"g":{"ha":654,"x_min":0,"x_max":627,"o":"m 623 490 q 616 485 623 485 l 549 485 q 560 436 557 460 q 564 386 564 412 q 496 216 564 275 q 413 170 460 186 q 317 154 366 154 q 225 168 266 154 q 208 140 208 148 q 211 131 208 135 l 225 115 q 345 83 267 101 q 471 47 422 65 q 562 -7 520 30 q 621 -106 604 -44 q 627 -150 627 -125 q 582 -262 627 -218 q 325 -347 499 -347 q 218 -342 288 -347 q 96 -308 153 -337 q 12 -225 40 -279 q 0 -165 0 -198 q 24 -74 0 -115 q 68 -16 41 -41 q 134 36 96 9 q 113 55 122 46 q 95 74 103 63 q 85 96 87 85 q 99 169 85 140 q 140 221 113 199 q 61 395 61 286 q 74 475 61 437 q 122 558 88 522 q 201 618 155 595 q 292 642 246 641 q 458 615 387 642 l 618 615 q 623 611 623 615 l 623 490 m 425 465 q 378 504 409 490 q 315 518 348 518 q 244 498 276 518 q 184 393 184 462 q 189 357 184 375 q 224 308 197 328 q 283 282 251 289 q 315 279 294 279 q 421 330 382 279 q 443 401 443 359 q 425 465 443 441 m 493 -176 q 503 -147 503 -165 q 490 -110 503 -130 q 395 -52 465 -73 q 315 -29 367 -41 q 241 -11 263 -17 q 161 -82 191 -45 q 132 -150 132 -119 q 275 -233 132 -224 q 325 -235 289 -235 q 493 -176 453 -235 z "},"h":{"ha":747,"x_min":97,"x_max":677,"o":"m 677 5 l 671 1 l 554 1 l 547 8 l 547 367 q 527 425 545 397 q 479 471 509 452 q 422 497 450 490 q 382 500 394 500 q 228 457 296 500 l 228 5 l 222 1 l 104 1 l 97 7 l 97 909 q 98 915 97 913 q 100 917 99 916 q 103 918 102 918 l 221 918 l 228 911 l 228 590 q 245 597 231 591 q 268 606 259 604 q 395 627 338 627 q 474 618 437 627 q 546 590 511 609 q 608 542 581 571 q 650 478 635 513 q 671 409 665 444 q 677 326 676 374 l 677 5 z "},"i":{"ha":338,"x_min":83,"x_max":254,"o":"m 254 745 q 231 722 245 736 q 201 692 217 708 q 171 661 185 675 l 164 661 q 125 701 145 680 q 85 742 106 721 q 83 747 83 743 l 167 831 q 169 832 168 831 q 171 833 170 833 q 174 831 171 833 l 253 750 q 254 747 254 749 q 254 745 254 746 m 235 611 l 235 5 q 234 2 235 4 q 231 0 234 0 l 109 0 q 105 2 107 1 q 103 5 103 3 l 103 614 l 107 615 l 231 615 l 235 611 z "},"j":{"ha":361,"x_min":0,"x_max":278,"o":"m 278 758 q 255 735 265 745 q 237 718 244 725 q 218 699 231 711 q 196 676 206 686 l 189 676 q 141 724 170 695 q 109 755 113 753 q 107 762 107 757 l 191 846 q 199 844 197 846 l 278 765 l 278 758 m 262 615 l 264 615 q 263 237 264 429 q 262 -155 263 45 q 229 -259 261 -213 q 143 -326 197 -305 q 62 -340 108 -340 q 9 -335 43 -340 q 1 -329 3 -335 q 1 -256 1 -286 q 0 -192 1 -227 q 15 -194 8 -193 q 33 -196 22 -195 q 52 -197 45 -197 q 72 -195 58 -197 q 120 -151 108 -182 q 132 -77 132 -121 l 132 -40 l 132 614 l 135 615 l 262 615 z "},"k":{"ha":690,"x_min":97,"x_max":676,"o":"m 676 5 l 672 0 l 504 0 q 409 90 464 34 q 315 186 354 146 q 233 260 276 225 q 228 257 228 260 l 228 5 l 221 0 l 97 0 l 97 913 l 102 917 l 224 917 l 228 913 l 228 411 q 231 400 228 400 q 235 404 232 401 q 240 408 239 408 q 340 499 260 426 q 476 615 420 572 l 637 615 l 637 603 q 485 466 564 536 q 335 338 406 397 l 335 330 q 487 190 357 309 q 676 5 617 71 z "},"l":{"ha":440,"x_min":83,"x_max":427,"o":"m 427 17 q 298 -17 363 -17 q 157 28 219 -17 q 103 97 123 53 q 83 191 83 141 l 83 911 l 90 917 l 205 917 l 211 913 q 211 694 211 833 q 210 414 210 554 q 210 193 210 274 q 234 141 214 170 q 282 107 254 113 q 307 104 298 104 q 421 157 363 104 q 427 151 427 157 l 427 17 z "},"m":{"ha":1157,"x_min":83,"x_max":1088,"o":"m 1088 5 l 1082 0 l 960 0 l 957 7 l 957 374 q 922 449 953 414 q 854 492 892 484 q 808 496 831 496 q 728 482 767 496 q 656 443 688 469 l 656 0 l 529 0 l 525 5 q 526 375 525 345 q 506 439 526 410 q 453 484 486 469 q 379 498 420 498 q 214 437 298 498 l 214 4 l 211 0 l 83 0 l 83 607 l 90 615 l 208 615 q 213 613 212 615 q 214 610 214 611 l 214 578 q 232 588 223 583 q 251 598 241 593 q 272 607 261 604 q 403 628 342 628 q 555 587 493 628 q 596 555 574 578 q 687 611 634 592 q 799 629 739 629 q 975 583 899 629 q 1048 512 1023 555 q 1080 420 1073 470 q 1088 307 1088 370 l 1088 5 z "},"n":{"ha":742,"x_min":83,"x_max":676,"o":"m 672 0 l 538 0 l 538 375 q 496 455 532 418 q 416 504 460 492 q 382 507 389 507 q 218 464 309 507 q 213 460 214 461 q 211 457 212 458 l 211 5 q 211 2 211 4 q 207 0 210 0 l 87 0 q 83 5 83 0 l 83 611 l 86 615 l 205 615 q 211 586 211 612 q 239 597 221 587 q 269 611 257 607 q 387 629 323 629 q 548 590 477 629 q 648 473 619 551 q 672 366 667 427 q 676 245 676 307 q 676 183 676 204 q 675 132 675 163 q 673 65 674 100 q 672 0 672 30 z "},"o":{"ha":760,"x_min":56,"x_max":704,"o":"m 673 457 q 704 318 704 398 q 687 205 704 260 q 636 110 669 150 q 561 40 603 68 q 472 -2 519 12 q 376 -16 425 -16 q 268 1 325 -16 q 197 36 231 12 q 136 88 162 59 q 90 153 109 117 q 62 228 71 189 q 56 302 56 259 q 92 457 56 386 q 200 575 128 528 q 257 604 227 592 q 322 622 288 615 q 390 628 356 628 q 526 600 466 628 q 609 541 568 581 q 673 457 650 500 m 553 215 q 574 307 574 254 q 547 408 574 366 q 474 481 520 456 q 374 507 428 506 q 292 487 330 507 q 225 428 254 467 q 184 302 184 375 q 212 204 184 247 q 378 110 274 110 q 412 113 400 110 q 493 148 455 120 q 553 215 532 176 z "},"p":{"ha":764,"x_min":83,"x_max":708,"o":"m 663 132 q 541 21 616 60 q 380 -17 466 -17 q 306 -9 351 -17 q 220 24 271 -4 q 214 21 217 21 l 214 -296 q 213 -299 214 -297 q 210 -301 213 -301 l 90 -301 q 85 -298 87 -301 q 83 -294 83 -296 l 83 610 q 85 614 83 613 q 89 615 87 615 l 208 615 q 214 610 214 615 l 214 570 q 257 595 235 583 q 300 614 279 608 q 389 627 342 627 q 534 592 465 627 q 652 493 604 557 q 708 306 708 420 q 663 132 708 204 m 571 261 q 575 301 575 279 q 543 407 575 361 q 460 479 512 454 q 383 496 422 496 q 214 427 294 496 l 214 172 q 383 113 306 113 q 431 118 408 113 q 520 171 480 129 q 571 261 559 212 z "},"q":{"ha":764,"x_min":56,"x_max":681,"o":"m 681 -294 l 675 -301 l 555 -301 l 550 -296 l 550 21 q 545 24 550 24 q 515 12 530 19 q 487 -1 500 4 q 458 -9 475 -6 q 383 -17 412 -17 q 223 21 298 -17 q 103 132 149 60 q 56 307 56 203 q 113 493 56 419 q 230 592 161 557 q 375 627 298 627 q 464 614 421 627 q 503 599 486 608 q 550 570 519 589 l 550 610 q 552 613 551 612 q 557 615 553 615 l 677 615 q 681 610 681 615 l 681 -294 m 550 172 l 550 427 q 470 477 514 458 q 382 496 425 496 q 306 479 342 496 q 221 407 252 454 q 189 300 189 361 q 193 261 189 279 q 245 171 205 212 q 334 118 285 129 q 380 113 355 113 q 550 172 460 113 z "},"r":{"ha":526,"x_min":83,"x_max":498,"o":"m 498 461 q 477 475 490 466 q 454 488 463 484 q 367 509 410 509 q 228 450 298 509 l 214 436 l 214 7 l 210 0 l 87 0 l 83 5 l 83 611 q 85 613 83 611 q 87 615 86 615 l 208 615 q 214 612 214 615 l 214 581 q 238 594 220 583 q 267 608 257 605 q 378 628 324 628 q 490 604 437 628 l 498 461 z "},"s":{"ha":614,"x_min":56,"x_max":557,"o":"m 460 18 q 294 -14 390 -14 q 69 37 165 -14 l 65 43 l 65 174 q 109 157 79 169 q 154 139 139 144 q 314 104 234 104 q 351 107 327 104 q 424 155 404 113 q 427 174 427 161 q 414 208 427 196 q 361 245 391 234 q 283 263 330 256 q 212 277 236 270 q 118 323 159 292 q 62 399 77 354 q 56 447 56 424 q 73 523 56 487 q 121 581 90 558 q 201 618 155 606 q 294 631 247 631 q 490 583 400 631 l 490 452 q 451 468 478 456 q 410 485 424 479 q 342 506 373 498 q 282 514 311 514 q 215 498 243 514 q 192 477 201 490 q 183 453 183 465 q 189 435 183 441 q 286 383 218 395 q 311 379 297 381 q 343 375 325 378 q 399 366 381 370 q 504 309 458 349 q 557 214 550 269 q 460 18 557 62 z "},"t":{"ha":551,"x_min":28,"x_max":510,"o":"m 510 489 l 504 485 l 278 485 l 271 479 l 271 196 q 313 122 273 144 q 374 109 336 109 q 510 149 427 109 l 510 31 q 364 -8 446 -8 q 256 11 307 -8 q 165 89 190 35 q 140 218 140 142 l 140 485 l 36 485 l 28 492 l 28 612 l 135 612 q 139 614 138 612 q 140 618 140 616 l 140 764 q 142 768 142 766 q 143 771 143 770 l 271 771 l 271 764 l 271 612 l 510 612 l 510 489 z "},"u":{"ha":737,"x_min":69,"x_max":654,"o":"m 648 0 l 528 0 q 524 4 525 0 l 524 33 q 438 -2 482 9 q 345 -14 393 -14 q 228 7 282 -14 q 116 91 163 33 q 69 210 69 148 l 69 615 l 196 615 l 200 606 l 200 224 q 245 151 209 182 q 328 111 281 119 q 361 109 351 109 q 522 174 445 109 q 522 440 522 353 q 521 610 522 527 q 524 614 521 612 q 528 615 526 615 l 648 615 q 652 613 650 614 q 654 608 654 612 l 654 4 q 652 1 654 2 q 648 0 650 0 z "},"v":{"ha":654,"x_min":14,"x_max":640,"o":"m 640 615 q 516 317 584 481 q 419 84 448 153 q 383 0 391 15 l 264 0 l 14 615 l 149 615 l 328 175 l 500 615 l 640 615 z "},"w":{"ha":1036,"x_min":14,"x_max":1022,"o":"m 1022 615 q 884 283 909 344 q 823 135 859 223 q 778 28 786 46 q 765 0 770 9 l 646 0 l 518 339 q 442 146 496 283 q 383 0 388 9 l 264 0 l 14 615 l 150 615 l 323 184 l 326 184 l 472 586 l 472 587 q 570 585 561 587 q 616 463 597 514 q 659 347 635 412 q 697 246 684 282 q 717 193 710 210 l 882 615 l 1022 615 z "},"x":{"ha":667,"x_min":25,"x_max":639,"o":"m 639 0 l 476 0 l 326 214 l 319 214 l 172 0 l 28 0 q 25 3 25 0 q 27 7 25 3 q 29 12 28 11 l 239 322 l 239 332 q 188 401 217 361 q 101 521 159 441 q 37 607 43 602 q 36 615 36 608 l 189 615 l 325 440 l 329 440 l 447 615 l 586 615 q 587 608 587 615 l 404 332 l 403 323 l 639 0 z "},"y":{"ha":721,"x_min":14,"x_max":721,"o":"m 721 615 q 644 474 703 583 q 544 290 585 366 q 431 79 503 214 q 317 -143 359 -57 q 205 -266 278 -220 q 43 -313 132 -313 l 37 -307 l 37 -197 q 175 -136 136 -197 q 213 -76 189 -115 q 252 -6 237 -37 q 279 58 268 24 l 286 78 q 157 333 254 141 q 14 615 59 526 l 143 615 q 157 614 157 615 q 164 604 158 614 l 355 214 l 366 218 q 432 343 387 259 q 520 509 477 427 q 574 610 564 591 q 587 615 575 615 l 721 615 z "},"z":{"ha":623,"x_min":41,"x_max":581,"o":"m 581 611 q 483 462 526 525 q 369 295 441 399 q 260 138 296 190 l 260 131 q 489 134 416 134 q 526 133 509 133 q 570 131 543 132 l 578 125 l 576 5 l 570 0 q 457 0 517 0 q 343 0 396 0 q 248 -1 291 -1 q 153 -1 205 -1 q 41 0 78 -1 l 41 9 q 131 144 43 12 q 281 373 218 276 q 349 485 343 469 l 69 485 l 64 489 l 62 610 l 69 615 q 224 614 126 614 q 420 614 322 614 q 575 614 518 614 l 581 611 z "},"{":{"ha":427,"x_min":40,"x_max":408,"o":"m 408 1036 l 407 920 q 334 909 357 920 q 303 881 315 900 q 292 844 292 863 q 300 764 296 801 q 306 698 304 726 q 307 647 307 670 q 279 551 307 600 q 208 469 251 503 q 258 418 237 447 q 293 356 280 389 q 307 292 307 322 q 306 241 307 269 q 298 165 304 214 q 290 94 292 117 q 303 58 290 77 q 332 29 315 39 q 407 20 357 20 l 408 -97 q 366 -103 389 -103 q 329 -100 348 -103 q 193 -9 233 -84 q 174 86 174 26 q 175 134 174 111 q 179 180 177 157 q 183 236 182 203 q 166 325 183 290 q 100 376 149 361 q 58 411 76 382 q 40 473 40 440 q 102 562 40 538 q 168 615 152 580 q 184 703 184 650 q 179 778 184 726 q 174 854 174 829 q 193 950 174 913 q 329 1039 235 1023 q 364 1043 346 1043 q 408 1036 381 1043 z "},"|":{"ha":258,"x_min":64,"x_max":195,"o":"m 195 -258 q 189 -264 195 -264 l 68 -264 q 64 -260 64 -264 l 64 1008 q 69 1014 64 1014 l 189 1014 q 195 1010 195 1014 l 195 -258 z "},"}":{"ha":436,"x_min":36,"x_max":404,"o":"m 345 376 q 279 325 296 360 q 262 236 262 290 q 267 170 262 222 q 272 86 272 118 q 253 -9 272 28 q 117 -100 212 -84 q 81 -103 98 -103 q 37 -97 58 -103 l 39 20 q 114 29 89 20 q 143 58 132 39 q 155 94 155 77 q 149 155 153 117 q 142 231 144 193 q 139 292 139 269 q 153 356 140 322 q 188 418 166 390 q 237 469 209 447 q 167 551 195 503 q 139 647 140 600 q 140 689 139 664 q 144 743 141 714 q 149 795 146 771 q 154 844 152 820 q 142 882 154 863 q 113 909 130 901 q 39 920 89 920 l 36 1036 q 82 1043 64 1043 q 117 1039 100 1043 q 252 950 212 1023 q 271 851 271 916 q 266 770 271 827 q 261 703 261 713 q 278 615 261 650 q 345 562 295 580 q 404 473 404 538 q 387 411 404 440 q 345 376 370 382 z "},"~":{"ha":628,"x_min":40,"x_max":604,"o":"m 604 604 q 526 497 579 537 q 428 464 481 464 q 347 478 390 464 q 288 499 327 484 q 225 521 250 513 q 131 541 168 541 q 46 510 82 541 q 40 509 45 509 q 118 614 66 576 q 216 647 161 647 q 285 637 245 647 q 360 612 311 631 q 418 590 410 593 q 514 571 475 571 q 597 602 562 571 q 604 604 600 604 z "},"":{"ha":639,"x_min":0,"x_max":0,"o":""},"Ä":{"ha":886,"x_min":14,"x_max":872,"o":"m 872 7 q 869 0 872 0 l 739 0 q 732 3 733 0 l 646 220 l 241 220 l 155 3 q 149 0 154 0 l 17 0 q 14 7 14 0 l 378 911 q 380 915 378 913 q 385 917 383 917 l 503 917 q 510 911 507 917 l 872 7 m 593 350 l 443 724 l 294 350 l 593 350 m 722 1017 q 640 933 667 961 l 633 933 q 554 1014 635 933 q 553 1019 553 1015 l 636 1103 q 638 1104 637 1103 q 640 1105 639 1105 q 643 1103 640 1105 l 722 1022 l 722 1017 m 332 1014 q 249 930 306 987 l 241 930 q 194 979 223 949 q 163 1011 165 1008 q 161 1017 161 1013 l 244 1100 q 246 1102 245 1101 q 249 1103 247 1103 q 253 1100 250 1103 l 332 1019 l 332 1014 z "},"Å":{"ha":886,"x_min":14,"x_max":872,"o":"m 593 350 l 443 724 l 294 350 l 593 350 m 567 1013 q 510 908 567 945 l 872 7 q 869 0 872 0 l 739 0 q 732 3 733 0 l 646 220 l 241 220 l 155 3 q 149 0 154 0 l 17 0 q 14 7 14 0 l 378 909 q 322 1013 322 947 q 338 1074 322 1045 q 383 1118 355 1102 q 444 1135 412 1135 q 506 1118 477 1135 q 551 1074 534 1102 q 567 1013 567 1045 m 497 1013 q 481 1050 497 1034 q 444 1065 466 1065 q 407 1049 422 1065 q 392 1013 392 1034 q 407 976 392 991 q 444 960 422 960 q 481 975 466 960 q 497 1013 497 991 z "},"Ç":{"ha":951,"x_min":75,"x_max":876,"o":"m 876 707 q 871 701 873 701 q 839 715 867 701 q 706 775 781 752 q 558 799 631 799 q 458 786 508 799 q 370 746 408 772 q 282 666 318 713 q 229 565 246 620 q 211 450 211 509 q 212 416 211 428 q 251 298 218 354 q 335 200 283 243 q 443 136 387 157 q 557 117 497 117 q 666 133 612 117 q 769 175 720 149 q 872 237 817 201 q 873 222 873 237 l 873 85 q 611 -12 765 3 q 612 -85 612 -36 q 577 -179 612 -139 q 486 -240 542 -218 q 404 -254 451 -254 q 357 -250 380 -254 q 347 -244 349 -250 l 347 -129 q 364 -131 349 -129 q 397 -136 380 -134 q 435 -138 415 -138 q 472 -106 463 -128 q 482 -46 481 -83 l 482 -9 q 340 31 399 2 q 210 126 269 66 q 117 260 151 186 q 77 414 83 335 q 75 457 75 428 q 129 682 75 578 q 285 859 182 785 q 412 918 340 898 q 561 937 484 937 q 671 927 616 937 q 775 898 726 918 q 868 851 825 879 l 875 840 l 876 707 z "},"É":{"ha":749,"x_min":97,"x_max":693,"o":"m 693 4 q 688 -1 693 -1 l 104 -1 q 100 1 102 -1 q 97 4 98 3 l 97 911 q 99 914 98 912 q 103 916 100 916 l 665 916 q 671 911 671 916 l 671 790 q 665 785 671 785 l 239 785 l 228 783 l 228 564 l 551 564 q 555 559 555 564 l 555 439 q 549 433 555 433 l 232 433 q 228 427 228 433 l 228 129 l 689 129 q 693 125 693 129 l 693 4 m 536 1214 l 536 1099 l 279 965 l 279 1078 l 536 1214 z "},"Ñ":{"ha":1011,"x_min":97,"x_max":914,"o":"m 914 911 l 914 5 q 908 0 914 0 l 777 0 q 771 3 772 0 l 228 703 l 228 5 q 222 0 228 0 l 103 0 q 97 4 97 0 l 97 911 q 103 917 97 917 l 224 917 q 235 911 231 917 l 783 207 l 783 911 q 789 917 783 917 l 908 917 q 914 911 914 917 m 772 1099 q 690 994 747 1038 q 591 961 644 961 q 510 975 555 961 q 452 995 490 981 q 389 1018 414 1009 q 304 1036 331 1036 q 222 1004 260 1036 q 210 997 214 997 q 203 1004 203 997 q 281 1111 232 1074 q 378 1143 324 1143 q 449 1133 404 1143 q 488 1122 467 1129 q 531 1105 508 1114 q 582 1088 555 1097 q 667 1069 630 1069 q 754 1103 713 1069 q 765 1107 760 1107 q 772 1099 772 1107 z "},"Ö":{"ha":1035,"x_min":98,"x_max":1035,"o":"m 982 237 q 809 51 922 121 q 570 -20 696 -19 q 435 0 500 -20 q 312 58 370 20 q 209 148 253 96 q 138 262 164 200 q 98 460 98 353 q 129 633 98 549 q 215 782 159 718 q 378 901 286 861 q 575 942 470 942 q 656 936 616 942 q 770 899 715 926 q 873 829 825 872 q 960 730 921 785 q 1035 469 1035 625 q 1021 348 1035 408 q 982 237 1008 287 m 868 599 q 826 672 854 635 q 761 737 798 709 q 685 779 725 764 q 566 800 624 800 q 481 789 525 800 q 398 755 437 778 q 330 700 359 732 q 241 461 241 603 q 265 330 241 397 q 320 238 283 281 q 404 166 357 195 q 501 127 451 138 q 561 122 529 122 q 789 212 688 122 q 847 285 825 245 q 881 371 869 325 q 893 463 893 417 q 868 599 893 534 m 875 1036 q 793 953 819 981 l 786 953 q 736 1003 767 972 q 705 1034 705 1034 q 704 1039 704 1035 l 787 1122 q 789 1124 788 1123 q 791 1125 790 1125 q 796 1122 792 1125 l 875 1042 l 875 1036 m 431 1036 q 349 953 375 981 l 342 953 q 294 1001 323 972 q 262 1032 264 1031 q 261 1039 261 1034 l 345 1122 q 346 1124 345 1123 q 349 1125 347 1125 q 351 1122 349 1125 l 431 1042 l 431 1036 z "},"Ü":{"ha":1010,"x_min":83,"x_max":899,"o":"m 899 913 l 899 395 q 867 238 899 313 q 780 107 836 163 q 648 20 724 52 q 490 -12 572 -12 q 333 20 408 -12 q 203 107 258 52 q 115 238 147 163 q 83 395 83 313 l 83 911 q 89 917 83 917 l 210 917 q 214 913 214 917 l 214 396 q 251 257 214 321 q 352 156 288 193 q 490 118 415 118 q 630 156 566 118 q 731 257 694 193 q 768 396 768 321 l 768 911 q 774 917 768 917 l 895 917 q 899 913 899 917 m 774 1026 q 690 943 747 1000 l 684 943 q 604 1023 684 943 q 603 1029 603 1025 l 686 1112 q 688 1114 687 1113 q 690 1116 688 1116 q 694 1112 691 1116 l 774 1032 l 774 1026 m 408 1026 q 326 943 362 981 l 319 943 q 240 1023 320 943 q 239 1029 239 1025 l 322 1112 q 323 1114 323 1113 q 326 1116 324 1116 q 329 1112 326 1116 l 408 1032 l 408 1026 z "},"á":{"ha":608,"x_min":41,"x_max":541,"o":"m 539 5 q 533 0 539 0 l 414 0 q 408 4 408 0 l 408 41 q 395 32 401 37 q 385 25 389 28 q 374 17 381 23 q 239 -17 313 -17 q 150 0 189 -17 q 73 72 103 28 q 41 167 42 115 q 69 259 41 216 q 142 328 97 302 q 260 376 196 362 q 406 395 324 390 q 407 429 406 419 q 396 469 407 455 q 346 510 378 495 q 278 526 313 526 q 227 519 254 526 q 180 503 203 513 q 131 478 158 493 q 72 447 103 463 q 129 591 91 507 q 294 627 208 627 q 454 578 393 627 q 517 498 493 549 q 541 370 541 454 q 540 334 541 347 q 539 304 540 321 l 539 5 m 408 138 l 408 297 q 332 286 364 290 q 268 271 300 281 q 211 245 235 262 q 171 168 173 221 q 199 118 171 136 q 265 100 227 100 q 310 105 285 100 q 363 121 334 111 q 408 138 392 132 m 457 922 l 457 807 l 200 673 l 200 786 l 457 922 z "},"à":{"ha":608,"x_min":41,"x_max":541,"o":"m 539 5 q 533 0 539 0 l 414 0 q 408 4 408 0 l 408 41 q 395 32 401 37 q 385 25 389 28 q 374 17 381 23 q 239 -17 313 -17 q 150 0 189 -17 q 73 72 103 28 q 41 167 42 115 q 69 259 41 216 q 142 328 97 302 q 260 376 196 362 q 406 395 324 390 q 407 429 406 419 q 396 469 407 455 q 346 510 378 495 q 278 526 313 526 q 227 519 254 526 q 180 503 203 513 q 131 478 158 493 q 72 447 103 463 q 129 591 91 507 q 294 627 208 627 q 454 578 393 627 q 517 498 493 549 q 541 370 541 454 q 540 334 541 347 q 539 304 540 321 l 539 5 m 408 138 l 408 297 q 332 286 364 290 q 268 271 300 281 q 211 245 235 262 q 171 168 173 221 q 199 118 171 136 q 265 100 227 100 q 310 105 285 100 q 363 121 334 111 q 408 138 392 132 m 163 936 l 163 819 l 418 688 l 419 800 l 163 936 z "},"â":{"ha":608,"x_min":41,"x_max":541,"o":"m 539 5 q 533 0 539 0 l 414 0 q 408 4 408 0 l 408 40 q 374 17 387 27 q 239 -17 313 -17 q 150 0 189 -17 q 73 72 103 28 q 41 167 42 115 q 69 259 41 216 q 142 328 97 302 q 260 376 196 362 q 406 395 324 390 q 407 429 406 419 q 396 469 407 455 q 346 510 378 495 q 278 526 313 526 q 227 519 254 526 q 180 503 203 513 q 131 478 158 493 q 72 447 103 463 q 129 591 91 507 q 294 627 208 627 q 454 578 393 627 q 517 498 493 549 q 541 370 541 454 q 540 334 541 347 q 539 304 540 321 l 539 5 m 408 136 l 408 297 q 332 286 364 290 q 268 271 300 281 q 211 245 235 262 q 171 168 173 221 q 199 118 171 136 q 265 100 227 100 q 310 105 284 100 q 351 116 335 111 q 408 136 368 122 m 293 925 l 519 681 l 379 679 l 293 774 l 205 679 l 66 679 l 293 925 z "},"ä":{"ha":608,"x_min":41,"x_max":541,"o":"m 539 5 q 533 0 539 0 l 414 0 q 408 4 408 0 l 408 41 q 395 32 401 37 q 385 25 389 28 q 374 17 381 23 q 239 -17 313 -17 q 150 0 189 -17 q 73 72 103 28 q 41 167 42 115 q 69 259 41 216 q 142 328 97 302 q 260 376 196 362 q 406 395 324 390 q 407 429 406 419 q 396 469 407 455 q 346 510 378 495 q 278 526 313 526 q 227 519 254 526 q 180 503 203 513 q 131 478 158 493 q 72 447 103 463 q 129 591 91 507 q 294 627 208 627 q 454 578 393 627 q 517 498 493 549 q 541 370 541 454 q 540 334 541 347 q 539 304 540 321 l 539 5 m 408 138 l 408 297 q 332 286 364 290 q 268 271 300 281 q 211 245 235 262 q 171 168 173 221 q 199 118 171 136 q 265 100 227 100 q 310 105 285 100 q 363 121 334 111 q 408 138 392 132 m 536 762 q 496 722 517 743 q 454 681 475 701 l 447 681 q 399 729 429 700 q 368 760 370 758 q 367 766 367 761 l 450 850 q 457 848 456 850 l 536 770 l 536 762 m 256 762 q 215 722 243 750 q 172 681 186 694 l 165 681 q 116 730 146 700 q 86 760 86 760 q 85 766 85 761 l 168 850 q 176 848 175 850 l 256 770 l 256 762 z "},"ã":{"ha":608,"x_min":32,"x_max":541,"o":"m 539 5 q 533 0 539 0 l 415 0 q 411 4 411 0 l 411 40 q 397 31 403 35 q 389 25 391 27 q 376 17 387 24 q 243 -17 316 -17 q 155 0 192 -17 q 79 71 109 28 q 49 165 50 115 q 76 257 49 215 q 147 326 104 299 q 263 373 200 359 q 408 392 326 387 q 410 427 408 416 q 399 467 410 452 q 349 508 379 494 q 282 522 319 522 q 231 515 259 522 q 186 500 210 511 q 125 469 163 490 q 78 444 87 448 q 135 587 104 522 q 300 623 214 623 q 386 611 346 623 q 456 575 426 600 q 518 496 490 547 q 541 370 541 450 q 540 333 541 347 q 539 302 540 319 l 539 5 m 411 136 l 411 296 q 339 284 376 290 q 271 269 303 279 q 215 243 238 259 q 176 167 178 220 q 203 118 176 136 q 269 97 233 97 q 314 103 291 97 q 359 116 338 109 q 411 136 380 124 m 532 828 q 454 721 509 764 q 355 688 412 688 q 275 701 318 688 q 250 712 272 704 q 218 725 228 720 q 127 743 155 743 q 41 711 80 743 q 36 707 40 707 q 32 711 32 707 q 110 818 56 774 q 207 850 151 850 q 278 840 237 850 q 310 829 293 836 q 332 820 326 823 q 347 814 337 818 q 437 796 406 796 q 521 827 485 796 q 526 831 522 831 q 529 830 528 831 q 532 828 531 829 z "},"å":{"ha":608,"x_min":41,"x_max":541,"o":"m 539 5 q 533 0 539 0 l 414 0 q 408 4 408 0 l 408 41 q 395 32 401 37 q 385 25 389 28 q 374 17 381 23 q 239 -17 313 -17 q 150 0 189 -17 q 73 72 103 28 q 41 167 42 115 q 69 259 41 216 q 142 328 97 302 q 260 376 196 362 q 406 395 324 390 q 407 429 406 419 q 396 469 407 455 q 346 510 378 495 q 278 526 313 526 q 227 519 254 526 q 180 503 203 513 q 131 478 158 493 q 72 447 103 463 q 129 591 91 507 q 294 627 208 627 q 454 578 393 627 q 517 498 493 549 q 541 370 541 454 q 540 334 541 347 q 539 304 540 321 l 539 5 m 408 138 l 408 297 q 332 286 364 290 q 268 271 300 281 q 211 245 235 262 q 171 168 173 221 q 199 118 171 136 q 265 100 227 100 q 310 105 285 100 q 363 121 334 111 q 408 138 392 132 m 412 799 q 376 711 412 748 q 290 675 340 675 q 204 711 239 675 q 168 799 168 747 q 184 859 168 831 q 229 904 201 888 q 290 921 257 921 q 352 904 323 921 q 396 859 380 888 q 412 799 412 831 m 343 799 q 328 836 343 821 q 290 851 313 851 q 253 836 268 851 q 237 799 237 821 q 253 761 237 778 q 290 745 268 745 q 328 761 313 745 q 343 799 343 778 z "},"ç":{"ha":652,"x_min":56,"x_max":596,"o":"m 596 46 q 433 -8 524 0 q 435 -85 435 -35 q 399 -179 434 -139 q 309 -241 364 -220 q 227 -256 273 -256 q 178 -252 201 -256 q 170 -244 172 -252 l 170 -131 q 208 -135 172 -131 q 257 -139 243 -139 q 306 -50 306 -123 q 302 -3 306 -28 q 215 32 255 9 q 98 149 141 77 q 56 302 56 220 q 58 347 56 332 q 78 425 63 383 q 116 500 93 466 q 171 562 139 534 q 239 604 203 589 q 390 633 307 633 q 589 589 495 633 l 593 582 q 591 432 593 489 q 569 446 583 437 q 542 462 555 454 q 517 476 530 469 q 389 505 460 505 q 264 464 309 505 q 193 310 193 402 q 196 273 193 299 q 252 173 205 217 q 359 117 298 128 q 396 114 385 114 q 587 196 479 114 l 595 199 q 595 153 595 174 q 595 97 595 131 q 596 46 595 62 z "},"é":{"ha":694,"x_min":56,"x_max":639,"o":"m 639 288 l 628 278 q 486 278 559 278 q 304 278 412 278 q 189 279 197 279 q 216 189 189 230 q 392 111 265 111 q 443 114 410 111 q 629 203 517 121 l 636 201 l 636 69 q 512 12 582 33 q 375 -8 443 -8 q 228 22 288 -8 q 140 90 179 46 q 78 190 101 134 q 56 307 56 246 q 57 340 56 329 q 93 452 64 397 q 167 549 121 508 q 268 608 213 590 q 368 624 320 624 q 489 598 433 624 q 581 519 545 572 q 639 288 639 437 m 505 383 q 493 422 505 401 q 464 461 481 443 q 432 488 446 479 q 354 505 397 505 q 253 475 298 505 q 211 432 227 458 q 195 383 196 406 l 505 383 m 530 924 l 530 808 l 275 675 l 273 787 l 530 924 z "},"è":{"ha":694,"x_min":56,"x_max":639,"o":"m 639 288 l 628 278 q 486 278 559 278 q 304 278 412 278 q 189 279 197 279 q 216 189 189 230 q 392 111 265 111 q 443 114 410 111 q 629 203 517 121 l 636 201 l 636 69 q 512 12 582 33 q 375 -8 443 -8 q 228 22 288 -8 q 140 90 179 46 q 78 190 101 134 q 56 307 56 246 q 57 340 56 329 q 93 452 64 397 q 167 549 121 508 q 268 608 213 590 q 368 624 320 624 q 489 598 433 624 q 581 519 545 572 q 639 288 639 437 m 505 383 q 493 422 505 401 q 464 461 481 443 q 432 488 446 479 q 354 505 397 505 q 253 475 298 505 q 211 432 227 458 q 195 383 196 406 l 505 383 m 232 936 l 232 819 l 489 688 l 489 800 l 232 936 z "},"ê":{"ha":694,"x_min":56,"x_max":639,"o":"m 639 288 l 628 278 l 189 278 q 216 189 189 230 q 392 111 265 111 q 443 114 410 111 q 629 203 517 121 l 636 201 l 636 69 q 512 12 582 33 q 375 -8 443 -8 q 228 22 288 -8 q 140 90 179 46 q 78 190 101 134 q 56 307 56 246 q 57 340 56 329 q 93 452 64 397 q 167 549 121 508 q 268 608 213 590 q 368 624 320 624 q 489 598 433 624 q 581 519 545 572 q 639 288 639 437 m 505 383 q 493 422 505 401 q 464 461 481 443 q 432 488 446 479 q 354 505 397 505 q 253 475 298 505 q 211 432 227 458 q 195 383 196 406 l 505 383 m 353 925 l 581 681 l 440 679 l 353 774 l 267 679 l 126 679 l 353 925 z "},"ë":{"ha":694,"x_min":56,"x_max":639,"o":"m 639 288 l 628 278 q 486 278 559 278 q 304 278 412 278 q 189 279 197 279 q 216 189 189 230 q 392 111 265 111 q 443 114 410 111 q 629 203 517 121 l 636 201 l 636 69 q 512 12 582 33 q 375 -8 443 -8 q 228 22 288 -8 q 140 90 179 46 q 78 190 101 134 q 56 307 56 246 q 57 340 56 329 q 93 452 64 397 q 167 549 121 508 q 268 608 213 590 q 368 624 320 624 q 489 598 433 624 q 581 519 545 572 q 639 288 639 437 m 505 383 q 493 422 505 401 q 464 461 481 443 q 432 488 446 479 q 354 505 397 505 q 253 475 298 505 q 211 432 227 458 q 195 383 196 406 l 505 383 m 583 760 q 501 676 528 704 l 494 676 q 415 757 496 676 q 414 762 414 758 l 497 846 q 499 847 498 846 q 501 848 500 848 q 504 846 501 848 l 583 765 l 583 760 m 302 760 q 266 722 283 740 q 221 676 248 705 l 214 676 q 134 757 214 676 q 132 762 132 758 l 215 846 q 217 847 216 846 q 220 848 218 848 q 224 846 221 848 l 302 765 l 302 760 z "},"í":{"ha":311,"x_min":47,"x_max":304,"o":"m 222 611 l 222 4 q 221 2 222 3 q 218 0 220 0 l 96 0 q 92 2 94 1 q 90 5 90 3 l 90 612 l 96 615 l 216 615 l 222 611 m 304 908 l 304 793 l 47 660 l 47 772 l 304 908 z "},"ì":{"ha":311,"x_min":32,"x_max":288,"o":"m 222 611 l 222 4 q 221 2 222 3 q 218 0 220 0 l 96 0 q 92 2 94 1 q 90 5 90 3 l 90 612 l 96 615 l 216 615 l 222 611 m 32 893 l 32 778 l 288 644 l 288 758 l 32 893 z "},"î":{"ha":311,"x_min":90,"x_max":222,"o":"m 222 611 l 222 4 q 221 2 222 3 q 218 0 220 0 l 96 0 q 92 2 94 1 q 90 5 90 3 l 90 612 l 96 615 l 216 615 l 222 611 z "},"ï":{"ha":452,"x_min":0,"x_max":452,"o":"m 452 760 q 370 676 396 704 l 363 676 q 282 757 363 676 q 281 762 281 758 l 364 846 q 366 847 365 846 q 368 848 367 848 q 372 846 370 848 l 452 765 l 452 760 m 170 760 l 171 760 q 130 718 151 739 q 87 676 109 697 l 81 676 q 1 757 82 676 q 0 762 0 758 l 83 846 q 85 847 84 846 q 87 848 86 848 q 90 846 87 848 l 170 765 l 170 760 m 292 611 l 292 4 q 290 2 292 3 q 286 0 288 0 l 165 0 q 162 2 164 1 q 160 5 160 3 l 160 612 l 165 615 l 286 615 l 292 611 z "},"ñ":{"ha":722,"x_min":90,"x_max":684,"o":"m 679 0 l 546 0 q 545 375 546 258 q 504 455 538 418 q 425 504 469 492 q 390 507 396 507 q 227 464 318 507 q 221 460 222 462 q 218 457 219 458 l 218 5 q 217 2 218 4 q 214 0 216 0 l 94 0 q 90 5 90 0 l 90 611 l 93 615 l 212 615 q 218 586 218 611 q 248 597 230 587 q 277 611 267 608 q 395 629 330 629 q 555 590 484 629 q 657 473 626 551 q 679 366 675 424 q 684 245 684 311 q 682 149 684 218 q 680 52 680 79 q 679 0 679 25 m 615 852 q 536 746 589 787 q 439 714 494 714 q 357 728 403 714 q 346 732 355 728 q 321 742 337 735 q 300 750 305 748 q 205 770 242 770 q 121 739 158 770 q 114 736 118 736 q 192 843 140 804 q 289 875 233 875 q 359 865 319 875 q 395 853 372 862 q 429 839 417 844 q 522 821 491 821 q 608 851 571 821 q 612 856 610 856 q 614 854 613 856 q 615 852 615 853 z "},"ó":{"ha":760,"x_min":56,"x_max":704,"o":"m 673 457 q 704 318 704 398 q 687 205 704 260 q 636 110 669 150 q 561 40 603 68 q 472 -2 519 12 q 376 -16 425 -16 q 268 1 325 -16 q 197 36 231 12 q 136 88 162 59 q 90 153 109 117 q 62 228 71 189 q 56 302 56 259 q 92 457 56 386 q 200 575 128 528 q 257 604 227 592 q 322 622 288 615 q 390 628 356 628 q 526 600 466 628 q 609 541 568 581 q 673 457 650 500 m 553 215 q 574 307 574 254 q 547 408 574 366 q 474 481 520 456 q 374 507 428 506 q 292 487 330 507 q 225 428 254 467 q 184 302 184 375 q 212 204 184 247 q 378 110 274 110 q 412 113 400 110 q 493 148 455 120 q 553 215 532 176 m 572 921 l 572 806 l 315 672 l 315 786 l 572 921 z "},"ò":{"ha":760,"x_min":72,"x_max":721,"o":"m 689 457 q 721 317 721 397 q 653 110 721 195 q 534 16 602 48 q 392 -16 467 -16 q 285 1 341 -16 q 152 88 210 24 q 79 228 94 152 q 72 302 72 262 q 108 457 72 386 q 216 575 144 528 q 305 614 254 600 q 407 628 356 628 q 543 600 481 628 q 627 540 585 581 q 689 457 668 499 m 568 215 q 589 307 589 254 q 564 408 589 365 q 491 480 536 455 q 390 507 445 506 q 307 487 345 507 q 241 428 269 466 q 201 302 201 376 q 229 204 201 245 q 272 155 245 178 q 330 121 299 132 q 393 110 360 110 q 429 113 416 110 q 510 148 472 120 q 568 215 549 176 m 250 950 l 250 833 l 505 701 l 507 814 l 250 950 z "},"ô":{"ha":760,"x_min":72,"x_max":721,"o":"m 689 457 q 721 317 721 397 q 653 110 721 195 q 534 16 602 48 q 392 -16 467 -16 q 285 1 341 -16 q 152 88 210 24 q 79 228 94 152 q 72 302 72 262 q 108 457 72 386 q 216 575 144 528 q 305 614 254 600 q 407 628 356 628 q 543 600 481 628 q 627 540 585 581 q 689 457 668 499 m 568 215 q 589 307 589 254 q 564 408 589 365 q 491 480 536 455 q 390 507 445 506 q 307 487 345 507 q 241 428 269 466 q 201 302 201 376 q 229 204 201 245 q 272 155 245 178 q 330 121 299 132 q 393 110 360 110 q 429 113 416 110 q 510 148 472 120 q 568 215 549 176 m 390 925 l 616 681 l 476 679 l 390 774 l 302 679 l 164 679 l 390 925 z "},"ö":{"ha":777,"x_min":72,"x_max":721,"o":"m 689 457 q 721 317 721 397 q 653 110 721 195 q 534 16 602 48 q 392 -16 467 -16 q 285 1 341 -16 q 152 88 210 24 q 79 228 94 152 q 72 302 72 262 q 108 457 72 386 q 216 575 144 528 q 305 614 254 600 q 407 628 356 628 q 543 600 481 628 q 627 540 585 581 q 689 457 668 499 m 568 215 q 589 307 589 254 q 564 408 589 365 q 491 480 536 455 q 390 507 445 506 q 307 487 345 507 q 241 428 269 466 q 201 302 201 376 q 229 204 201 245 q 272 155 245 178 q 330 121 299 132 q 393 110 360 110 q 429 113 416 110 q 510 148 472 120 q 568 215 549 176 m 616 758 q 593 735 604 745 q 576 718 583 725 q 557 699 569 711 q 534 676 545 686 l 526 676 q 479 724 508 695 q 447 755 451 753 q 446 762 446 757 l 529 846 q 538 844 536 846 l 616 765 l 616 758 m 335 758 q 312 735 322 745 q 294 718 301 725 q 275 699 288 711 q 253 676 263 686 l 245 676 q 199 724 227 695 q 167 755 171 753 q 165 762 165 757 l 249 846 q 256 844 254 846 l 335 765 l 335 758 z "},"õ":{"ha":760,"x_min":72,"x_max":721,"o":"m 689 457 q 721 317 721 397 q 653 110 721 195 q 534 16 602 48 q 392 -16 467 -16 q 285 1 341 -16 q 152 88 210 24 q 79 228 94 152 q 72 302 72 262 q 108 457 72 386 q 216 575 144 528 q 305 614 254 600 q 407 628 356 628 q 543 600 481 628 q 627 540 585 581 q 689 457 668 499 m 568 215 q 589 307 589 254 q 564 408 589 365 q 491 480 536 455 q 390 507 445 506 q 307 487 345 507 q 241 428 269 466 q 201 302 201 376 q 229 204 201 245 q 272 155 245 178 q 330 121 299 132 q 393 110 360 110 q 429 113 416 110 q 510 148 472 120 q 568 215 549 176 m 654 847 q 576 741 629 779 q 478 707 531 707 q 397 721 444 707 q 368 733 391 724 q 339 745 346 741 q 250 762 282 762 q 163 730 200 762 q 158 726 161 726 q 154 730 154 726 q 232 838 179 797 q 330 869 273 869 q 399 860 359 869 q 468 833 432 849 q 559 815 526 815 q 643 846 607 815 q 647 850 644 850 q 651 849 649 850 q 654 847 653 848 z "},"ú":{"ha":737,"x_min":69,"x_max":654,"o":"m 648 0 l 528 0 q 524 4 525 0 l 524 33 q 438 -2 482 9 q 345 -14 393 -14 q 228 7 282 -14 q 116 91 163 33 q 69 210 69 148 l 69 615 l 196 615 l 200 606 l 200 224 q 245 151 209 182 q 328 111 281 119 q 361 109 351 109 q 522 174 445 109 q 522 440 522 353 q 521 610 522 527 q 524 614 521 612 q 528 615 526 615 l 648 615 q 652 613 650 614 q 654 608 654 612 l 654 4 q 652 1 654 2 q 648 0 650 0 m 555 922 l 555 807 l 298 673 l 298 786 l 555 922 z "},"ù":{"ha":737,"x_min":69,"x_max":654,"o":"m 648 0 l 528 0 q 524 4 525 0 l 524 33 q 438 -2 482 9 q 345 -14 393 -14 q 228 7 282 -14 q 116 91 163 33 q 69 210 69 148 l 69 615 l 196 615 l 200 606 l 200 224 q 245 151 209 182 q 328 111 281 119 q 361 109 351 109 q 522 174 445 109 q 522 440 522 353 q 521 610 522 527 q 524 614 521 612 q 528 615 526 615 l 648 615 q 652 613 650 614 q 654 608 654 612 l 654 4 q 652 1 654 2 q 648 0 650 0 m 183 920 l 183 803 l 440 671 l 440 783 l 183 920 z "},"û":{"ha":737,"x_min":69,"x_max":654,"o":"m 647 0 l 528 0 q 524 4 525 0 l 524 33 q 438 -2 482 9 q 345 -14 393 -14 q 228 7 282 -14 q 116 91 163 33 q 69 210 69 148 l 69 615 l 196 615 l 200 606 l 200 224 q 245 151 209 182 q 328 111 281 119 q 361 109 351 109 q 522 174 445 109 q 522 440 522 353 q 521 610 522 527 q 524 614 521 612 q 528 615 526 615 l 648 615 q 654 608 652 615 l 653 4 q 651 1 653 2 q 647 0 648 0 m 361 925 l 589 681 l 447 679 l 361 774 l 275 679 l 135 679 l 361 925 z "},"ü":{"ha":737,"x_min":69,"x_max":654,"o":"m 648 0 l 528 0 q 524 4 525 0 l 524 33 q 438 -2 482 9 q 345 -14 393 -14 q 228 7 282 -14 q 116 91 163 33 q 69 210 69 148 l 69 615 l 196 615 l 200 606 l 200 224 q 245 151 209 182 q 328 111 281 119 q 361 109 351 109 q 522 174 445 109 q 522 440 522 353 q 521 610 522 527 q 524 614 521 612 q 528 615 526 615 l 648 615 q 652 613 650 614 q 654 608 654 612 l 654 4 q 652 1 654 2 q 648 0 650 0 m 589 760 q 507 676 533 704 l 500 676 q 450 726 481 695 q 419 757 419 757 q 418 762 418 758 l 501 846 q 503 847 502 846 q 505 848 504 848 q 510 846 507 848 l 589 765 l 589 760 m 309 760 q 267 718 288 739 q 225 676 246 697 l 218 676 q 139 757 220 676 q 138 762 138 758 l 221 846 q 223 847 222 846 q 225 848 224 848 q 229 846 227 848 l 309 765 l 309 760 z "},"†":{"ha":440,"x_min":41,"x_max":399,"o":"m 154 485 l 50 485 l 41 492 l 41 612 l 149 612 q 153 614 152 612 q 154 618 154 616 l 154 764 q 156 768 155 766 q 157 771 157 770 l 285 771 l 285 764 l 285 612 l 399 612 l 399 489 l 393 485 l 292 485 l 285 479 q 283 86 283 479 q 282 82 283 84 q 281 79 281 81 l 153 79 l 153 86 q 153 148 153 100 q 154 259 153 196 q 154 485 154 321 z "},"°":{"ha":496,"x_min":37,"x_max":461,"o":"m 461 741 q 446 660 461 698 q 399 591 430 622 q 331 544 369 560 q 250 528 293 528 q 143 556 193 528 q 66 634 94 585 q 37 741 37 683 q 54 822 37 783 q 100 890 70 860 q 169 936 131 920 q 250 951 207 951 q 331 936 293 951 q 399 890 370 920 q 445 822 429 860 q 461 741 461 783 m 342 741 q 315 805 342 778 q 250 832 288 832 q 184 805 212 832 q 157 741 157 777 q 184 675 157 702 q 250 648 212 648 q 315 675 288 648 q 342 741 342 701 z "},"¢":{"ha":631,"x_min":31,"x_max":571,"o":"m 571 225 q 425 172 507 185 l 425 64 q 419 60 425 60 l 298 60 q 294 64 294 60 l 294 174 q 191 211 237 184 q 104 284 140 242 q 50 377 68 326 q 31 482 31 429 q 33 526 31 511 q 92 682 45 612 q 214 783 138 752 q 294 806 254 800 l 294 911 q 300 917 294 917 l 421 917 q 425 916 425 917 q 425 913 425 914 l 425 808 q 564 768 498 798 l 568 761 q 567 611 568 668 q 540 627 551 621 q 518 641 530 633 q 492 656 507 648 q 364 685 432 685 q 294 675 327 685 q 239 643 262 665 q 168 489 168 581 q 171 453 168 477 q 227 351 180 395 q 335 296 274 307 q 371 293 359 293 q 562 375 454 293 l 570 378 q 570 332 570 353 q 570 276 570 310 q 571 225 570 241 z "},"£":{"ha":807,"x_min":33,"x_max":775,"o":"m 775 131 q 705 4 762 96 l 700 0 l 33 0 q 48 26 33 12 q 66 45 63 40 q 104 106 90 73 q 127 179 118 140 q 139 250 136 218 q 149 334 143 282 q 148 342 149 340 q 146 343 146 343 l 58 345 q 54 346 54 345 q 53 351 53 347 l 98 475 l 167 475 q 175 602 170 527 q 195 736 180 677 q 243 843 210 795 q 335 918 276 890 q 440 937 382 937 q 539 911 502 937 q 614 836 574 888 l 614 829 q 564 755 584 785 q 528 694 543 725 l 522 694 q 444 806 505 792 q 346 764 376 806 q 315 687 323 728 q 303 573 307 646 q 296 479 298 500 l 300 475 l 524 475 q 530 463 530 473 l 478 342 l 288 342 q 276 255 280 281 q 265 199 273 228 q 241 136 258 170 l 248 131 l 775 131 z "},"§":{"ha":720,"x_min":39,"x_max":682,"o":"m 664 489 q 682 383 682 439 q 662 275 682 328 q 606 183 642 222 q 582 161 592 170 q 596 66 596 116 q 577 -40 596 11 q 521 -131 558 -92 q 422 -199 479 -175 q 302 -222 365 -222 q 197 -203 245 -222 q 130 -162 161 -188 q 77 -102 99 -137 q 65 -83 75 -99 q 49 -54 55 -66 q 39 -29 43 -41 l 146 41 q 157 20 151 32 q 167 0 162 9 q 215 -58 184 -33 q 282 -85 246 -83 q 371 -71 336 -85 q 425 -25 406 -57 q 454 77 454 24 q 429 153 454 123 q 371 202 405 182 q 282 247 337 222 q 203 285 227 271 q 65 424 86 346 q 56 496 56 456 q 98 627 56 571 q 174 692 129 665 q 150 739 156 713 q 140 808 140 770 q 184 942 140 887 q 380 1039 261 1039 q 444 1031 412 1039 q 542 982 493 1020 q 608 901 590 944 q 556 866 593 890 q 500 828 519 843 q 385 903 451 903 q 355 899 371 903 q 312 871 331 892 q 288 827 292 850 q 340 726 288 755 q 427 687 360 716 q 536 634 494 658 q 612 575 577 610 q 664 489 646 539 m 515 468 q 459 516 492 496 q 370 561 427 536 q 306 590 313 586 q 289 587 296 588 q 269 583 282 586 q 227 557 246 578 q 203 511 207 536 q 256 411 203 440 q 327 379 260 409 q 431 330 393 349 q 503 281 468 311 q 506 285 505 283 q 510 290 507 288 q 532 341 524 314 q 541 393 541 368 q 515 468 541 435 z "},"•":{"ha":708,"x_min":164,"x_max":545,"o":"m 545 310 q 489 175 545 231 q 354 119 433 119 q 220 175 275 119 q 164 310 164 231 q 190 405 164 361 q 259 474 215 448 q 354 500 302 500 q 449 474 405 500 q 519 405 494 448 q 545 310 545 361 z "},"¶":{"ha":732,"x_min":41,"x_max":635,"o":"m 408 5 q 403 0 408 0 l 283 0 q 278 4 278 0 l 278 364 q 68 505 121 387 q 41 636 41 564 q 106 827 41 752 q 296 917 184 917 l 631 917 q 635 911 635 917 l 635 5 q 631 0 635 0 l 507 0 l 504 5 l 504 786 q 410 787 443 786 q 410 573 410 686 q 409 367 410 460 q 409 191 409 275 q 408 5 408 108 m 278 498 l 279 778 q 205 725 234 766 q 179 631 179 680 q 196 562 179 591 q 278 498 221 517 z "},"ß":{"ha":825,"x_min":97,"x_max":783,"o":"m 782 216 q 783 189 783 207 q 758 87 783 134 q 684 18 732 41 q 519 -14 616 -14 q 402 0 460 -14 q 294 39 343 13 q 293 41 294 40 q 292 53 292 43 q 291 100 291 64 q 290 180 290 136 q 382 144 338 162 q 541 111 459 111 q 575 113 564 111 q 615 126 596 115 q 644 158 634 138 q 647 175 647 164 q 635 207 647 195 q 583 243 612 233 q 510 260 555 253 q 437 275 465 267 q 344 321 386 290 q 288 397 302 353 q 281 447 281 422 q 310 543 281 510 q 368 582 328 563 q 431 617 408 602 q 479 672 454 632 q 485 689 485 680 q 456 729 485 713 q 382 746 425 746 q 281 721 330 746 q 245 684 256 708 q 231 633 233 661 q 228 562 228 606 l 228 -82 l 224 -86 l 100 -86 l 97 -82 l 97 566 q 122 738 97 670 q 221 843 148 805 q 370 876 285 876 q 457 865 412 876 q 551 817 500 854 q 600 759 583 794 q 616 682 616 723 q 610 632 616 652 q 468 511 586 552 q 430 487 448 504 q 412 454 412 471 q 418 436 412 444 q 469 397 438 408 q 552 380 499 387 q 624 368 606 374 q 729 311 684 351 q 782 216 775 271 z "},"®":{"ha":1047,"x_min":56,"x_max":991,"o":"m 939 237 q 866 133 910 181 q 767 51 823 85 q 652 -1 711 17 q 526 -20 592 -18 q 392 0 456 -20 q 269 58 328 20 q 166 148 210 96 q 94 262 121 199 q 56 460 56 352 q 86 634 56 551 q 172 782 116 718 q 336 902 244 861 q 532 942 427 942 q 612 936 572 942 q 779 868 699 923 q 917 730 859 812 q 973 610 954 679 q 991 469 991 541 q 939 237 991 338 m 825 599 q 783 672 812 635 q 718 737 755 709 q 642 779 682 765 q 524 800 584 800 q 394 774 456 800 q 288 700 332 748 q 199 461 199 603 q 222 330 199 394 q 316 200 250 257 q 458 127 382 143 q 519 122 486 122 q 641 145 584 122 q 746 212 698 169 q 803 284 779 243 q 838 371 827 326 q 850 463 850 417 q 825 599 850 534 m 633 250 q 501 431 635 250 l 464 431 l 464 261 l 456 250 l 383 250 l 378 264 l 378 699 l 395 703 l 475 703 q 557 696 523 703 q 618 668 591 690 q 657 604 646 646 q 663 566 663 578 q 636 485 663 519 q 596 454 620 464 q 636 398 618 425 q 666 353 654 372 q 695 311 679 335 q 725 269 712 288 q 708 250 725 250 l 692 253 q 705 262 701 261 q 722 264 709 264 l 721 256 l 721 250 l 714 250 l 633 250 m 524 611 q 463 615 503 615 q 464 519 464 595 l 494 519 q 555 536 542 519 q 567 575 567 548 q 524 611 559 604 z "},"©":{"ha":1047,"x_min":56,"x_max":991,"o":"m 939 237 q 866 133 910 181 q 767 51 823 85 q 652 -1 711 17 q 526 -20 592 -18 q 392 0 456 -20 q 269 58 328 20 q 166 148 210 96 q 94 262 121 199 q 56 460 56 352 q 86 634 56 551 q 172 782 116 718 q 336 902 244 861 q 532 942 427 942 q 612 936 572 942 q 779 868 699 923 q 917 730 859 812 q 973 610 954 679 q 991 469 991 541 q 939 237 991 338 m 825 599 q 783 672 812 635 q 718 737 755 709 q 642 779 682 765 q 524 800 584 800 q 394 774 456 800 q 288 700 332 748 q 199 461 199 603 q 222 330 199 394 q 316 200 250 257 q 458 127 382 143 q 519 122 486 122 q 641 145 584 122 q 746 212 698 169 q 803 284 779 243 q 838 371 827 326 q 850 463 850 417 q 825 599 850 534 m 689 272 q 536 229 623 229 q 414 260 467 229 q 329 344 360 292 q 298 456 298 395 q 301 488 298 465 q 345 598 311 548 q 432 671 378 649 q 539 692 479 692 q 682 660 612 692 l 688 652 q 686 533 688 585 q 624 570 626 569 q 538 590 582 590 q 456 562 488 590 q 408 461 408 519 q 411 435 408 451 q 448 368 417 397 q 519 330 479 339 q 603 344 568 330 q 672 386 637 358 l 689 390 l 689 272 z "},"™":{"ha":746,"x_min":20,"x_max":693,"o":"m 693 559 q 684 551 693 551 l 637 551 q 628 559 628 551 l 628 815 q 513 676 559 729 l 504 676 q 385 819 421 777 l 385 559 q 376 551 385 551 l 329 551 q 319 559 319 551 l 319 854 l 196 854 l 196 559 q 186 551 196 551 l 140 551 q 131 559 131 551 l 131 854 l 28 854 q 20 863 20 854 l 20 908 q 22 914 20 910 q 26 918 25 918 l 376 918 l 378 918 q 383 913 383 916 q 446 839 406 888 q 509 764 487 790 l 629 911 l 629 913 q 637 918 635 918 l 685 918 q 693 908 693 918 l 693 559 z "},"´":{"ha":379,"x_min":75,"x_max":332,"o":"m 332 1214 l 332 1099 l 75 965 l 75 1078 l 332 1214 z "},"¨":{"ha":672,"x_min":110,"x_max":561,"o":"m 561 760 q 479 676 505 704 l 472 676 q 392 757 473 676 q 390 762 390 758 l 473 846 q 475 847 474 846 q 478 848 476 848 q 482 846 479 848 l 561 765 l 561 760 m 281 760 q 239 718 260 739 q 197 676 218 697 l 191 676 q 111 757 192 676 q 110 762 110 758 l 193 846 q 195 847 194 846 q 197 848 196 848 q 201 846 199 848 l 281 765 l 281 760 z "},"Æ":{"ha":1349,"x_min":0,"x_max":1293,"o":"m 1293 3 q 1287 -3 1293 -3 l 703 -1 q 701 0 702 -1 q 699 0 700 0 q 697 3 697 1 l 697 5 l 697 220 l 322 220 l 154 3 q 152 1 153 1 q 149 0 152 0 l 0 0 q 53 68 0 0 q 255 332 106 136 q 690 911 405 528 q 696 916 692 915 q 701 917 700 917 q 1265 914 882 917 q 1270 909 1270 914 l 1270 789 q 1264 783 1270 783 l 839 783 l 828 782 l 828 564 l 1150 564 q 1156 558 1156 564 l 1156 437 q 1149 432 1156 432 l 838 432 q 832 429 836 431 q 828 424 828 427 l 828 129 l 1289 129 q 1293 123 1293 129 l 1293 3 m 828 424 l 828 382 l 828 424 m 697 703 l 424 350 l 697 350 l 697 703 z "},"Ø":{"ha":1047,"x_min":56,"x_max":991,"o":"m 982 822 l 905 746 q 911 739 909 743 q 917 730 914 734 q 973 610 954 679 q 991 469 991 541 q 939 237 991 338 q 866 133 910 181 q 767 51 823 85 q 652 -1 711 17 q 526 -20 592 -18 q 374 5 448 -20 q 237 78 300 31 l 154 -5 l 147 -5 l 62 79 l 62 87 l 147 172 q 94 262 117 213 q 56 460 56 352 q 86 634 56 551 q 172 782 116 718 q 336 902 244 861 q 532 942 427 942 q 612 936 572 942 q 817 840 720 920 l 890 914 l 897 914 l 982 829 l 982 822 m 715 739 q 642 779 677 768 q 524 800 584 800 q 394 774 456 800 q 288 700 332 748 q 199 461 199 603 q 222 330 199 394 q 250 275 232 303 l 715 739 m 825 599 q 803 643 813 628 l 340 180 q 458 127 393 142 q 519 122 486 122 q 641 145 584 122 q 746 212 698 169 q 803 284 779 243 q 838 371 827 326 q 850 463 850 417 q 825 599 850 534 z "},"∞":{"ha":1059,"x_min":18,"x_max":1008,"o":"m 1008 707 q 1002 701 1005 701 q 971 715 996 701 q 838 775 913 752 q 690 799 762 799 q 590 786 640 799 q 500 746 539 772 q 392 633 427 697 l 876 633 l 885 629 l 885 509 q 882 505 884 507 q 878 503 880 503 l 346 503 q 343 433 343 481 l 765 433 l 774 429 l 774 309 q 771 305 773 307 q 768 302 770 302 l 380 302 q 463 202 412 245 q 575 136 515 159 q 689 117 629 117 q 844 149 768 117 q 1004 237 920 182 q 1006 222 1006 237 l 1006 85 q 858 11 943 37 q 685 -16 774 -16 q 471 31 570 -16 q 325 142 387 71 q 232 302 263 214 l 24 302 q 20 309 20 302 q 24 317 20 313 q 65 365 31 324 q 121 433 98 406 l 207 433 q 208 503 207 479 l 24 503 q 18 509 18 503 q 24 517 18 511 q 47 546 25 518 q 90 597 70 574 q 119 633 109 621 l 237 633 q 416 859 292 771 q 693 937 528 937 q 803 927 749 937 q 907 898 858 918 q 1000 851 957 879 l 1007 840 l 1008 707 z "},"¥":{"ha":851,"x_min":25,"x_max":827,"o":"m 827 908 l 591 602 l 663 602 l 667 597 l 667 475 l 664 471 l 493 471 l 493 380 l 663 380 l 667 378 l 667 254 l 664 250 l 493 250 l 493 -1 l 363 -1 l 363 250 l 193 250 q 186 260 186 250 l 186 376 l 192 380 l 363 380 l 363 471 l 192 471 q 186 479 186 471 l 186 596 l 191 602 l 264 602 q 141 762 206 679 q 25 905 75 845 q 33 916 25 911 l 180 916 l 189 913 l 191 913 q 250 836 210 888 q 313 752 289 785 q 372 674 338 719 q 425 603 406 629 l 429 603 q 492 685 483 673 q 537 746 500 697 q 600 828 574 795 q 664 908 625 861 q 681 916 669 916 l 822 916 q 827 908 827 916 z "},"µ":{"ha":696,"x_min":56,"x_max":640,"o":"m 61 -155 q 56 -150 56 -155 l 56 606 l 56 608 l 56 614 l 182 614 l 182 612 q 187 608 187 612 l 187 216 q 234 147 199 176 q 314 110 270 118 q 350 109 326 109 q 416 118 388 109 q 476 159 451 133 q 509 216 500 184 l 509 608 q 511 613 509 612 q 514 614 513 614 l 636 614 q 637 612 636 614 l 640 612 l 640 608 l 640 607 l 640 3 q 638 0 640 1 q 635 -1 636 -1 l 515 -1 q 511 3 511 -1 l 511 24 q 338 -16 469 -16 q 215 5 269 -16 q 184 20 197 12 l 184 -150 q 183 -154 184 -153 q 180 -155 182 -155 l 61 -155 z "},"∂":{"ha":885,"x_min":97,"x_max":869,"o":"m 222 0 l 103 0 q 97 4 97 0 l 97 911 q 103 917 97 917 l 224 917 q 228 913 228 917 l 228 543 l 602 903 q 615 908 607 908 l 794 908 q 800 903 800 908 q 798 897 800 900 l 408 522 l 865 8 q 867 6 865 7 q 869 3 868 5 q 864 0 869 0 l 696 0 q 689 2 693 0 q 684 5 686 4 l 228 513 l 228 7 q 226 3 228 7 q 222 0 224 0 z "},"∑":{"ha":1292,"x_min":14,"x_max":1278,"o":"m 1278 917 l 950 0 l 814 0 l 663 361 l 533 0 l 397 0 l 14 917 l 165 917 l 463 192 l 586 543 l 431 917 l 582 917 l 656 739 l 718 917 l 861 917 l 730 554 l 879 192 l 1135 917 l 1278 917 z "},"∏":{"ha":1047,"x_min":56,"x_max":991,"o":"m 939 236 q 835 102 899 160 q 692 13 771 44 q 526 -20 613 -18 q 392 0 456 -20 q 269 58 328 20 q 166 148 210 96 q 94 262 121 199 q 56 460 56 352 q 86 634 56 551 q 172 782 116 718 q 336 902 244 861 q 532 942 427 942 q 612 936 572 942 q 779 868 699 923 q 917 730 859 812 q 973 610 954 679 q 991 469 991 541 q 986 388 991 428 q 969 311 980 348 q 939 236 958 275 m 825 599 q 783 672 812 635 q 718 737 755 709 q 642 779 682 765 q 524 800 584 800 q 394 774 456 800 q 288 700 332 748 q 199 461 199 603 q 222 330 199 394 q 316 200 250 257 q 458 127 382 143 q 519 122 486 122 q 641 145 584 122 q 746 212 698 169 q 803 284 779 243 q 838 371 827 326 q 850 463 850 417 q 825 599 850 534 m 599 399 q 492 392 564 392 l 492 237 l 486 224 l 421 224 q 406 240 406 224 l 406 667 q 410 676 406 671 q 418 682 415 680 l 574 682 q 667 638 631 682 q 703 536 703 595 q 689 471 703 506 q 599 399 665 413 m 604 572 q 533 596 588 596 q 509 596 517 596 q 492 595 501 595 l 492 481 l 522 481 q 608 509 593 481 q 614 534 614 519 q 604 572 614 556 z "},"∫":{"ha":519,"x_min":0,"x_max":505,"o":"m 505 911 l 505 785 q 504 781 505 783 q 498 778 503 778 q 395 803 450 803 q 325 785 350 803 q 275 723 286 760 q 264 623 264 686 l 264 4 l 262 3 l 262 -50 q 247 -122 262 -87 q 204 -182 232 -157 q 143 -221 177 -208 q 66 -233 113 -233 q 16 -229 40 -233 q 6 -224 12 -228 q 0 -220 0 -221 l 0 -86 q 15 -88 8 -87 q 33 -90 22 -89 q 52 -92 45 -92 q 72 -89 58 -92 q 122 -39 111 -75 q 134 65 134 -3 l 134 624 q 143 743 134 692 q 180 834 153 794 q 257 901 208 875 q 382 926 304 926 q 505 911 441 926 z "},"ª":{"ha":509,"x_min":41,"x_max":467,"o":"m 467 325 l 464 319 l 52 319 q 45 329 45 319 l 45 446 l 50 452 l 463 452 l 467 447 l 467 325 m 335 665 l 335 749 q 302 785 324 771 q 254 799 280 799 q 189 772 216 799 q 161 707 161 745 q 189 642 161 669 q 254 615 216 615 q 335 665 309 615 m 461 917 l 467 914 l 467 501 q 457 496 467 496 l 340 496 l 335 500 l 335 511 q 254 494 293 494 q 148 523 197 494 q 70 600 99 551 q 41 707 41 649 q 58 788 41 749 q 105 857 75 827 q 173 903 135 887 q 254 918 211 918 q 335 903 296 918 l 335 913 l 339 917 l 461 917 z "},"º":{"ha":509,"x_min":41,"x_max":467,"o":"m 465 717 q 450 636 465 674 q 404 567 434 598 q 335 520 373 536 q 254 504 297 504 q 148 533 197 504 q 70 610 98 562 q 41 717 41 659 q 58 798 41 760 q 104 866 74 836 q 173 912 135 897 q 254 928 211 928 q 335 912 297 928 q 404 866 374 896 q 449 798 433 836 q 465 717 465 760 m 346 717 q 319 781 346 754 q 254 808 293 808 q 189 781 216 808 q 161 717 161 754 q 189 651 161 677 q 254 625 216 625 q 319 651 292 625 q 346 717 346 677 m 467 335 l 464 329 l 52 329 q 45 339 45 329 l 45 456 l 50 461 l 463 461 l 467 457 l 467 335 z "},"Ω":{"ha":977,"x_min":61,"x_max":893,"o":"m 893 89 q 713 0 817 26 q 546 -22 621 -22 q 402 -3 472 -22 q 271 55 332 16 q 164 153 210 95 q 87 294 114 217 q 61 454 61 370 q 81 595 61 524 q 148 735 101 668 q 259 850 195 802 q 397 920 324 898 q 554 939 463 939 q 639 935 599 939 q 760 909 701 928 q 873 859 819 890 l 873 701 q 777 754 831 730 q 664 792 722 779 q 549 806 607 806 q 353 749 435 806 q 270 668 303 715 q 220 566 236 621 q 204 450 204 511 q 208 389 204 420 q 238 299 214 344 q 298 218 262 255 q 380 153 335 180 q 469 115 425 126 q 555 106 510 106 q 760 161 665 106 q 761 315 760 216 q 761 439 761 413 q 761 484 761 466 l 890 484 l 893 479 l 893 89 z "},"æ":{"ha":1000,"x_min":29,"x_max":971,"o":"m 971 288 l 960 279 l 526 279 l 526 233 q 549 189 534 211 q 724 111 596 111 q 775 114 741 111 q 860 139 821 119 q 961 203 898 159 l 968 201 l 968 71 q 845 13 914 33 q 704 -7 777 -7 q 559 22 618 -7 q 526 41 553 26 l 526 5 q 521 0 526 0 l 401 0 q 396 4 396 0 l 396 41 q 361 17 374 26 q 227 -17 300 -17 q 138 0 176 -17 q 60 72 91 28 q 29 167 30 115 q 57 259 29 217 q 129 328 84 302 q 247 376 183 362 q 393 395 311 390 q 395 429 393 419 q 383 469 395 456 q 332 510 364 495 q 264 526 300 525 q 214 519 242 526 q 167 503 188 513 q 118 478 146 493 q 60 447 91 463 q 117 591 81 516 q 282 627 196 627 q 441 578 381 627 q 484 533 466 561 q 600 608 536 589 q 700 624 652 624 q 821 598 764 624 q 913 519 877 572 q 971 288 971 433 m 838 383 q 813 443 838 412 q 762 488 788 474 q 686 507 725 507 q 585 476 631 507 q 544 432 559 458 q 526 383 528 406 l 838 383 m 396 136 l 396 297 q 341 289 393 296 q 255 271 288 281 q 199 245 222 262 q 158 168 161 221 q 166 140 158 153 q 186 118 174 126 q 252 100 214 100 q 297 105 271 100 q 345 118 322 111 q 396 136 368 126 z "},"ø":{"ha":739,"x_min":26,"x_max":701,"o":"m 701 567 l 631 496 q 663 439 650 469 q 683 377 676 409 q 689 310 689 346 q 664 185 689 244 q 595 82 640 126 q 493 13 551 37 q 368 -12 435 -12 q 182 47 265 -12 l 119 -16 l 113 -16 l 28 69 q 26 77 26 72 l 93 142 q 46 310 46 216 q 71 434 46 376 q 140 537 96 492 q 243 606 184 581 q 368 631 302 631 q 534 585 458 631 l 610 660 q 616 659 614 660 l 701 574 l 701 567 m 437 486 q 368 500 406 500 q 273 474 317 500 q 203 405 229 448 q 178 310 178 361 q 191 240 178 271 l 437 486 m 558 310 q 534 400 558 360 l 277 142 q 368 119 320 119 q 464 145 420 119 q 533 214 507 170 q 558 310 558 258 z "},"¿":{"ha":567,"x_min":53,"x_max":533,"o":"m 82 98 q 53 220 53 151 q 106 374 53 318 q 147 417 130 401 q 192 456 164 433 q 252 507 219 479 q 269 557 269 523 q 265 583 269 571 q 216 640 256 612 l 296 726 q 357 675 331 711 q 400 559 400 616 q 395 517 400 536 q 360 453 386 483 q 291 384 335 422 q 233 330 248 345 q 182 228 182 279 q 197 171 182 199 q 289 125 221 125 q 328 127 315 125 q 392 162 363 134 q 436 224 422 189 q 533 149 494 182 q 486 71 519 105 q 407 16 452 37 q 317 -8 361 -5 q 172 18 230 -8 q 82 98 113 43 m 211 852 q 249 890 224 865 q 294 936 273 915 l 301 936 q 350 886 320 917 q 380 856 380 856 q 382 848 382 854 l 298 765 q 290 766 292 765 l 211 846 l 211 852 z "},"¡":{"ha":296,"x_min":53,"x_max":224,"o":"m 71 125 q 79 312 73 184 q 89 516 85 440 q 95 631 93 591 q 98 690 97 670 l 176 690 q 183 568 178 654 q 194 348 189 482 q 201 125 200 214 l 201 -14 l 71 -14 l 71 125 m 53 840 q 95 881 66 853 q 136 922 123 909 l 143 922 q 191 874 162 903 q 222 843 220 844 q 224 836 224 842 l 140 753 q 132 754 134 753 l 53 833 l 53 840 z "},"ƒ":{"ha":547,"x_min":0,"x_max":505,"o":"m 505 489 q 505 486 505 488 q 501 484 505 484 l 269 484 q 264 478 264 484 l 264 4 l 262 3 l 262 -50 q 247 -122 262 -87 q 204 -182 232 -157 q 143 -221 177 -208 q 66 -233 113 -233 q 16 -229 40 -233 q 6 -224 12 -228 q 0 -220 0 -221 l 0 -86 q 15 -88 8 -87 q 33 -90 22 -89 q 52 -92 45 -92 q 72 -89 58 -92 q 122 -39 111 -75 q 134 65 134 -3 l 134 484 l 33 484 q 29 489 29 484 l 29 610 q 35 615 29 615 l 131 615 q 134 624 134 615 q 143 743 134 692 q 180 834 153 794 q 257 901 208 875 q 382 926 304 926 q 505 911 441 926 l 505 785 q 504 781 505 783 q 498 778 503 778 q 395 803 450 803 q 325 785 350 803 q 275 723 286 760 q 264 623 264 686 q 265 618 264 621 q 272 615 267 615 l 503 615 l 505 610 l 505 489 z "},"≈":{"ha":690,"x_min":86,"x_max":625,"o":"m 599 664 l 422 436 l 625 184 l 463 184 l 347 351 l 233 186 l 89 186 q 86 189 86 186 q 88 193 86 189 q 90 199 90 197 l 268 433 q 221 495 249 458 q 144 594 193 532 q 92 663 96 656 q 90 671 90 664 l 243 671 l 349 528 l 458 671 l 597 671 q 599 664 599 671 z "},"∆":{"ha":1475,"x_min":41,"x_max":1406,"o":"m 1406 5 q 1403 1 1406 2 q 1400 0 1401 0 l 1280 0 q 1275 4 1275 0 l 1275 33 q 1189 -2 1234 9 q 1096 -14 1145 -14 q 979 7 1034 -14 q 867 90 913 33 q 821 210 821 146 l 821 615 l 947 615 l 951 606 l 951 224 q 995 150 960 181 q 1079 111 1031 119 q 1111 109 1102 109 q 1272 174 1194 109 l 1272 610 q 1275 614 1272 612 q 1279 615 1278 615 l 1400 615 l 1406 607 l 1406 5 m 1096 -239 q 981 -265 1046 -265 q 850 -239 918 -265 q 699 -173 783 -211 q 511 -89 614 -136 q 351 -16 407 -42 q 254 1 300 -12 q 121 88 179 24 q 49 228 63 152 q 41 302 41 258 q 78 457 41 386 q 186 575 114 528 q 276 614 225 601 q 376 628 326 628 q 513 600 451 628 q 596 541 555 581 q 660 457 637 500 q 690 318 690 398 q 623 110 690 193 q 536 33 587 64 q 943 -154 794 -96 q 1002 -167 973 -167 q 1093 -144 1036 -167 q 1095 -201 1093 -175 q 1096 -239 1096 -228 m 539 215 q 559 307 559 254 q 533 408 559 366 q 460 480 506 455 q 359 507 414 506 q 211 428 271 507 q 171 302 171 376 q 199 204 171 245 q 271 134 229 159 q 364 110 313 110 q 399 113 386 110 q 480 148 441 120 q 539 215 518 176 z "},"«":{"ha":745,"x_min":25,"x_max":669,"o":"m 669 428 l 550 307 l 669 187 l 669 12 q 668 11 669 12 q 663 9 667 9 l 378 294 q 374 315 374 300 l 664 606 q 669 603 669 606 l 669 428 m 323 425 l 204 306 l 323 184 l 323 11 q 317 7 323 7 l 32 293 q 25 306 25 302 q 29 314 25 310 l 318 604 q 323 602 323 604 l 323 425 z "},"»":{"ha":775,"x_min":93,"x_max":733,"o":"m 733 314 q 733 304 733 310 q 729 293 732 298 l 444 7 q 437 11 437 7 l 437 184 l 558 306 l 437 425 l 437 602 q 443 604 437 604 l 733 314 m 387 315 q 390 307 387 315 q 385 294 390 300 l 98 9 q 93 12 93 9 l 93 187 l 212 307 l 93 428 l 93 603 q 98 606 93 606 l 387 315 z "},"…":{"ha":653,"x_min":41,"x_max":611,"o":"m 611 5 q 606 0 611 0 l 486 0 q 481 4 481 0 l 481 126 q 486 131 481 131 l 607 131 q 611 126 611 131 l 611 5 m 392 5 q 386 0 392 0 l 267 0 q 261 4 261 0 l 261 126 q 267 131 261 131 l 387 131 q 392 126 392 131 l 392 5 m 172 5 q 167 0 172 0 l 46 0 q 41 4 41 0 l 41 126 q 47 131 41 131 l 168 131 q 172 126 172 131 l 172 5 z "}," ":{"ha":566,"x_min":0,"x_max":0,"o":""},"À":{"ha":886,"x_min":14,"x_max":872,"o":"m 872 7 q 869 0 872 0 l 739 0 q 732 3 733 0 l 646 220 l 241 220 l 155 3 q 149 0 154 0 l 17 0 q 14 7 14 0 l 378 911 q 380 915 378 913 q 385 917 383 917 l 503 917 q 510 911 507 917 l 872 7 m 593 350 l 443 724 l 294 350 l 593 350 m 322 1194 l 322 1079 l 578 946 l 578 1059 l 322 1194 z "},"Ã":{"ha":886,"x_min":14,"x_max":872,"o":"m 872 7 q 869 0 872 0 l 739 0 q 732 3 733 0 l 646 220 l 241 220 l 155 3 q 149 0 154 0 l 17 0 q 14 7 14 0 l 378 911 q 380 915 378 913 q 385 917 383 917 l 503 917 q 510 911 507 917 l 872 7 m 593 350 l 443 724 l 294 350 l 593 350 m 778 1100 q 699 994 748 1031 q 600 961 654 961 q 519 975 564 961 q 456 998 500 981 q 399 1018 412 1014 q 307 1038 345 1038 q 224 1006 261 1038 q 216 1002 220 1002 q 214 1003 215 1002 q 212 1004 213 1004 q 290 1111 241 1073 q 387 1143 334 1143 q 458 1133 414 1143 q 497 1122 477 1129 q 541 1105 517 1114 q 591 1088 564 1097 q 677 1069 637 1069 q 766 1103 728 1069 q 772 1107 772 1107 q 778 1100 778 1107 z "},"Õ":{"ha":1025,"x_min":102,"x_max":1038,"o":"m 985 237 q 813 51 926 121 q 574 -20 701 -19 q 439 0 503 -20 q 315 58 374 20 q 212 148 256 96 q 140 262 168 199 q 102 460 102 352 q 132 634 102 551 q 218 782 162 718 q 323 870 267 835 q 446 924 380 906 q 579 942 511 942 q 660 936 618 942 q 826 869 747 923 q 962 730 904 814 q 1038 468 1038 625 q 1024 347 1038 407 q 985 237 1010 287 m 871 599 q 829 672 857 635 q 764 737 800 709 q 689 779 728 765 q 570 800 628 800 q 334 700 428 800 q 286 631 307 671 q 255 547 265 590 q 245 461 245 504 q 268 330 245 393 q 323 238 286 281 q 407 166 360 195 q 504 127 454 138 q 566 122 532 122 q 791 212 692 122 q 850 283 827 243 q 884 368 873 323 q 896 461 896 413 q 871 599 896 534 m 860 1128 q 781 1022 831 1059 q 682 989 736 989 q 602 1003 646 989 q 536 1026 578 1010 q 481 1046 494 1042 q 389 1065 427 1065 q 306 1034 343 1065 q 298 1029 301 1029 q 296 1030 297 1029 q 294 1032 295 1031 q 372 1139 323 1101 q 469 1171 415 1171 q 541 1161 499 1171 q 579 1149 559 1157 q 623 1133 600 1142 q 673 1116 646 1124 q 760 1097 720 1097 q 848 1131 810 1097 q 854 1135 852 1135 q 860 1128 860 1135 z "},"Œ":{"ha":1415,"x_min":56,"x_max":1360,"o":"m 939 237 q 863 129 908 177 l 1356 129 q 1360 125 1360 129 l 1360 4 q 1354 -1 1360 -1 l 652 -1 q 526 -20 583 -20 q 392 0 456 -20 q 269 58 328 20 q 166 148 210 96 q 94 262 121 199 q 56 460 56 352 q 86 634 56 551 q 172 782 116 718 q 336 902 244 861 q 532 942 427 942 q 612 936 572 942 q 690 916 652 930 l 1332 916 q 1337 911 1337 916 l 1337 790 q 1332 785 1337 785 l 878 785 l 875 785 q 917 730 891 766 q 983 564 966 661 l 1218 564 q 1222 559 1222 564 l 1222 439 q 1215 433 1222 433 l 990 433 q 974 329 987 380 q 939 237 960 279 m 825 599 q 783 672 812 635 q 718 737 755 709 q 642 779 682 765 q 524 800 584 800 q 394 774 456 800 q 288 700 332 748 q 199 461 199 603 q 222 330 199 394 q 316 200 250 257 q 458 127 382 143 q 519 122 486 122 q 641 145 584 122 q 746 212 698 169 q 803 284 779 243 q 838 371 827 326 q 850 463 850 417 q 825 599 850 534 z "},"œ":{"ha":1207,"x_min":56,"x_max":1152,"o":"m 1152 285 l 1141 277 l 703 277 l 703 265 q 729 186 703 232 q 802 126 755 144 q 904 109 848 109 q 957 111 923 109 q 1042 138 1002 117 q 1141 201 1083 159 l 1149 199 l 1149 68 q 888 -9 1034 -9 q 741 21 801 -9 q 639 106 683 48 l 636 104 q 561 35 603 63 q 472 -7 519 7 q 376 -21 425 -21 q 268 -4 321 -21 q 197 30 231 7 q 136 83 162 54 q 90 148 109 112 q 62 222 71 184 q 56 297 56 254 q 92 452 56 380 q 200 570 128 523 q 257 598 227 587 q 322 616 288 610 q 390 623 356 623 q 526 595 466 623 q 639 503 588 566 q 781 606 699 578 q 880 623 830 623 q 961 611 920 623 q 1035 576 1002 600 q 1095 517 1069 553 q 1152 285 1152 433 m 1018 382 q 993 441 1018 409 q 945 485 968 473 q 868 504 908 504 q 765 473 810 504 q 724 430 740 456 q 707 382 708 404 l 1018 382 m 553 210 q 574 301 574 249 q 547 403 574 361 q 474 475 520 450 q 374 501 427 500 q 292 481 330 501 q 225 422 255 462 q 184 297 184 368 q 212 199 184 241 q 378 104 274 104 q 412 107 400 104 q 494 143 454 114 q 553 210 533 172 z "},"–":{"ha":623,"x_min":56,"x_max":567,"o":"m 567 350 l 562 345 l 62 345 q 56 355 56 345 l 56 482 l 61 488 l 561 488 l 567 484 l 567 350 z "},"—":{"ha":1026,"x_min":56,"x_max":971,"o":"m 971 350 l 966 345 l 62 345 q 56 355 56 345 l 56 482 l 61 488 l 965 488 l 971 484 l 971 350 z "},"“":{"ha":522,"x_min":41,"x_max":509,"o":"m 509 917 q 453 876 478 903 q 419 818 427 849 q 414 754 414 791 l 414 652 l 283 652 l 283 760 q 328 857 288 819 q 509 917 395 917 m 256 917 q 200 870 218 899 q 177 807 182 842 q 172 725 172 772 l 172 610 l 41 610 l 41 730 q 62 821 46 785 q 118 879 79 857 q 256 917 171 917 z "},"”":{"ha":494,"x_min":11,"x_max":453,"o":"m 453 836 q 445 764 453 792 q 416 713 437 735 q 363 675 395 690 q 240 647 296 647 q 239 650 239 648 q 239 654 239 652 q 239 656 239 655 q 305 720 288 678 q 322 822 322 762 l 322 914 q 328 917 322 917 l 449 917 q 453 911 453 917 l 453 836 m 216 803 q 198 709 214 747 q 140 643 181 670 q 14 604 83 606 q 12 608 14 606 q 11 611 11 610 q 17 615 11 615 q 71 676 59 640 q 85 774 83 712 q 86 845 85 812 q 86 911 86 877 q 90 917 86 917 l 211 917 q 216 911 216 917 l 216 803 z "},"‘":{"ha":275,"x_min":31,"x_max":244,"o":"m 244 913 q 229 904 239 909 q 210 892 218 899 q 161 771 161 851 l 161 602 l 31 602 l 31 753 q 114 890 31 844 q 171 911 142 905 q 237 917 199 917 q 242 916 239 917 q 244 913 244 915 z "},"’":{"ha":222,"x_min":5,"x_max":216,"o":"m 216 917 l 216 819 q 203 716 216 758 q 149 646 190 674 q 83 618 127 631 q 17 604 39 604 q 5 608 5 604 q 64 656 43 635 q 86 708 86 678 l 86 913 l 89 917 l 216 917 z "},"÷":{"ha":538,"x_min":56,"x_max":482,"o":"m 361 700 q 279 616 333 673 l 272 616 q 224 665 253 636 q 192 697 196 694 q 191 704 191 699 l 273 787 q 282 786 281 787 l 361 707 l 361 700 m 482 411 l 479 406 l 62 406 q 56 415 56 406 l 56 532 l 60 538 l 476 538 l 482 533 l 482 411 m 354 241 q 320 208 341 229 q 271 158 299 186 l 264 158 q 216 208 245 178 q 184 239 187 237 q 183 245 183 240 l 267 329 q 275 328 273 329 l 354 249 l 354 241 z "},"ÿ":{"ha":721,"x_min":14,"x_max":721,"o":"m 721 615 q 644 474 703 583 q 544 290 585 366 q 431 79 503 214 q 317 -143 359 -57 q 205 -266 278 -220 q 43 -313 132 -313 l 37 -307 l 37 -197 q 175 -136 136 -197 q 213 -76 189 -115 q 252 -6 237 -37 q 279 58 268 24 l 286 78 q 157 333 254 141 q 14 615 59 526 l 143 615 q 157 614 157 615 q 164 604 158 614 l 355 214 l 366 218 q 432 343 387 259 q 520 509 477 427 q 574 610 564 591 q 587 615 575 615 l 721 615 m 591 762 q 554 725 572 743 q 510 679 537 707 l 503 679 q 422 760 503 679 q 421 765 421 761 l 504 848 q 506 850 505 849 q 509 851 507 851 q 513 848 510 851 l 591 768 l 591 762 m 310 762 q 228 679 254 707 l 221 679 q 142 760 222 679 q 140 765 140 761 l 224 848 q 225 850 224 849 q 228 851 227 851 q 231 848 228 851 l 310 768 l 310 762 z "},"Ÿ":{"ha":802,"x_min":0,"x_max":802,"o":"m 802 908 q 670 736 747 836 q 564 597 594 637 q 468 472 533 557 l 468 -1 l 338 -1 l 338 472 q 220 626 283 545 q 108 771 158 707 q 0 905 58 835 q 8 916 0 910 l 157 916 l 165 913 q 274 771 225 837 q 400 603 323 706 l 406 603 q 458 672 439 648 q 513 746 476 697 q 572 824 550 795 q 639 908 594 852 q 657 916 644 916 l 798 916 q 802 908 802 916 m 623 1039 q 599 1016 610 1026 q 582 999 589 1006 q 563 979 575 991 q 541 957 551 967 l 533 957 q 487 1005 515 976 q 454 1036 458 1034 q 453 1043 453 1038 l 536 1126 q 543 1125 542 1126 l 623 1046 l 623 1039 m 342 1039 q 301 999 329 1027 q 258 957 273 970 l 252 957 q 203 1005 233 976 q 172 1036 174 1035 q 171 1043 171 1038 l 254 1126 q 262 1125 261 1126 l 342 1046 l 342 1039 z "},"⁄":{"ha":315,"x_min":-25,"x_max":338,"o":"m 338 1004 q 276 683 319 894 q 187 253 234 471 q 124 -39 140 35 q 97 -164 108 -113 q 95 -166 97 -166 q 90 -167 92 -167 l -20 -167 q -25 -161 -25 -167 q -24 -157 -25 -159 q -22 -154 -23 -155 l 221 1011 l 334 1011 q 336 1007 334 1010 q 338 1004 337 1004 z "},"¤":{"ha":728,"x_min":14,"x_max":697,"o":"m 697 677 l 627 606 q 685 407 685 524 q 668 316 683 361 q 627 235 652 270 l 688 172 l 688 165 l 603 81 q 596 79 600 79 l 530 146 q 364 98 456 98 q 178 157 264 98 l 115 96 l 109 96 l 24 180 q 22 187 22 183 l 89 253 q 41 419 41 328 q 89 587 47 519 l 14 663 l 14 669 l 98 754 l 106 754 l 178 684 q 364 742 260 742 q 530 696 454 742 l 606 770 l 612 770 l 697 685 l 697 677 m 536 328 q 557 419 557 367 q 530 521 557 479 q 485 574 513 551 q 426 607 458 596 q 357 619 394 618 q 275 600 313 619 q 208 541 238 580 q 168 414 168 484 q 196 315 168 359 q 240 267 214 288 q 297 234 266 245 q 361 222 328 222 q 396 225 383 222 q 477 260 438 232 q 536 328 515 288 z "},"‹":{"ha":372,"x_min":25,"x_max":323,"o":"m 323 425 l 204 306 l 323 184 l 323 11 q 317 7 323 7 l 32 293 q 25 306 25 302 q 29 314 25 310 l 318 604 q 323 602 323 604 l 323 425 z "},"›":{"ha":372,"x_min":53,"x_max":349,"o":"m 349 315 q 348 305 349 311 q 345 294 348 299 l 60 9 q 53 12 53 9 l 53 187 l 174 307 l 53 428 l 53 603 q 58 606 53 606 l 349 315 z "},"":{"ha":574,"x_min":28,"x_max":504,"o":"m 504 911 l 504 785 q 503 781 504 783 q 497 778 502 778 q 395 803 448 803 q 323 785 349 803 q 274 722 286 760 q 262 623 262 684 q 265 618 262 621 q 272 615 267 615 l 500 615 q 504 614 503 615 q 504 611 504 612 l 504 4 q 503 2 504 3 q 500 0 501 0 l 378 0 q 374 2 376 1 q 372 5 372 3 l 374 485 q 314 485 336 485 q 268 484 293 484 q 262 478 262 484 l 262 4 l 258 0 l 135 0 l 132 4 l 132 484 l 32 484 q 28 489 28 484 l 28 610 q 33 615 28 615 l 131 615 q 132 624 132 615 q 142 743 132 692 q 179 834 151 794 q 256 901 206 875 q 382 926 305 926 q 504 911 440 926 z "},"":{"ha":817,"x_min":28,"x_max":803,"o":"m 803 4 q 672 -29 741 -29 q 532 14 593 -29 q 493 57 509 32 q 469 115 477 83 q 460 178 460 148 l 460 484 l 268 484 q 262 478 262 484 l 262 4 l 258 0 l 135 0 l 132 4 l 132 484 l 32 484 q 28 489 28 484 l 28 610 q 33 615 28 615 l 131 615 q 132 624 132 615 q 142 743 132 692 q 179 834 151 794 q 256 901 206 875 q 382 926 305 926 q 504 911 440 926 q 587 890 575 898 l 587 178 q 611 125 593 151 q 659 94 630 100 q 684 92 675 92 q 741 105 714 92 q 799 144 768 119 q 802 144 800 144 q 803 140 803 143 l 803 4 m 460 793 q 395 804 427 804 q 323 785 351 804 q 274 722 286 760 q 262 623 262 684 q 265 618 262 621 q 272 615 267 615 l 460 615 l 460 793 z "},"‡":{"ha":551,"x_min":28,"x_max":385,"o":"m 28 387 l 35 393 l 132 393 l 139 399 q 139 436 139 431 q 140 447 140 441 q 140 485 140 452 l 36 485 l 28 492 l 28 612 l 135 612 q 139 614 138 612 q 140 618 140 616 l 140 764 q 142 768 142 766 q 143 771 143 770 l 271 771 l 271 764 l 271 612 l 385 612 l 385 489 l 379 485 l 278 485 l 271 479 q 270 442 271 447 q 270 432 270 437 q 269 393 269 427 l 376 393 l 385 386 l 385 265 l 275 265 q 270 263 271 265 q 269 260 269 261 l 269 -11 q 268 -15 269 -13 q 267 -18 267 -17 l 139 -18 l 139 -11 l 139 265 l 28 265 l 28 387 z "},"∙":{"ha":214,"x_min":41,"x_max":172,"o":"m 172 241 q 167 236 172 236 l 46 236 q 41 240 41 236 l 41 363 q 47 367 41 367 l 168 367 q 172 363 172 367 l 172 241 z "},"‚":{"ha":267,"x_min":14,"x_max":225,"o":"m 224 117 q 225 71 224 92 q 225 16 225 50 q 211 -85 225 -43 q 157 -154 197 -126 q 91 -183 132 -170 q 25 -196 49 -196 q 14 -192 14 -196 q 72 -144 51 -165 q 93 -92 93 -123 l 93 113 l 96 117 l 224 117 z "},"„":{"ha":497,"x_min":14,"x_max":456,"o":"m 456 36 q 364 -123 456 -81 q 240 -150 309 -150 l 241 -147 q 307 -82 290 -125 q 325 22 325 -39 l 325 117 l 456 117 l 456 36 m 220 117 l 220 8 q 199 -87 216 -45 q 142 -155 182 -129 q 14 -193 92 -189 q 73 -128 58 -168 q 89 -24 87 -87 l 89 117 l 220 117 z "},"‰":{"ha":1369,"x_min":41,"x_max":1339,"o":"m 895 211 q 879 129 895 167 q 834 62 863 92 q 766 16 804 33 q 685 0 727 0 q 604 16 643 0 q 536 62 565 33 q 490 130 507 91 q 473 211 473 168 q 490 291 473 253 q 535 359 506 330 q 604 405 565 389 q 685 421 642 421 q 766 405 728 421 q 833 359 804 389 q 879 292 863 330 q 895 211 895 255 m 463 705 q 447 624 463 663 q 401 556 431 586 q 333 511 372 527 q 253 494 294 494 q 172 511 211 494 q 104 556 133 527 q 58 624 75 585 q 41 705 41 663 q 58 786 41 748 q 103 854 74 825 q 171 900 133 884 q 253 916 208 916 q 334 900 296 916 q 401 854 371 884 q 447 786 431 825 q 463 705 463 748 m 869 917 l 258 0 l 113 0 l 111 8 l 717 917 l 869 917 m 790 211 q 776 263 790 239 q 737 302 762 288 q 685 317 713 317 q 610 286 640 317 q 579 211 579 254 q 610 137 579 168 q 685 106 641 106 q 737 120 713 106 q 776 159 762 134 q 790 211 790 183 m 358 705 q 344 758 358 733 q 305 797 330 783 q 253 811 281 811 q 178 780 208 811 q 147 705 147 749 q 178 631 147 662 q 253 600 209 600 q 305 614 281 600 q 344 653 330 629 q 358 705 358 677 m 1339 211 q 1323 129 1339 167 q 1278 62 1308 92 q 1210 16 1249 33 q 1129 0 1171 0 q 1048 16 1087 0 q 980 62 1009 33 q 935 130 951 91 q 918 211 918 169 q 934 291 918 252 q 980 359 950 330 q 1048 405 1009 389 q 1129 421 1086 421 q 1210 405 1172 421 q 1278 359 1248 389 q 1323 292 1308 330 q 1339 211 1339 255 m 1235 211 q 1221 263 1235 239 q 1182 302 1206 288 q 1129 317 1157 317 q 1054 286 1084 317 q 1023 211 1023 254 q 1054 137 1023 168 q 1129 106 1085 106 q 1182 120 1157 106 q 1221 159 1206 134 q 1235 211 1235 183 z "},"Â":{"ha":886,"x_min":14,"x_max":872,"o":"m 872 7 q 869 0 872 0 l 739 0 q 732 3 733 0 l 646 220 l 241 220 l 155 3 q 149 0 154 0 l 17 0 q 14 7 14 0 l 378 911 q 380 915 378 913 q 385 917 383 917 l 503 917 q 510 911 507 917 l 872 7 m 593 350 l 443 724 l 294 350 l 593 350 m 522 957 l 441 1043 l 359 957 l 205 957 l 441 1207 q 444 1204 441 1207 l 677 958 l 522 957 z "},"Ê":{"ha":749,"x_min":97,"x_max":693,"o":"m 693 4 q 688 -1 693 -1 l 104 -1 q 100 1 102 -1 q 97 4 98 3 l 97 911 q 99 914 98 912 q 103 916 100 916 l 665 916 q 671 911 671 916 l 671 790 q 665 785 671 785 l 239 785 l 228 783 l 228 564 l 551 564 q 555 559 555 564 l 555 439 q 549 433 555 433 l 232 433 q 228 427 228 433 l 228 129 l 689 129 q 693 125 693 129 l 693 4 m 382 1221 q 387 1216 382 1221 q 415 1187 392 1211 q 497 1099 438 1162 q 614 974 556 1036 l 465 974 l 382 1063 l 297 974 l 150 974 l 382 1221 z "},"Á":{"ha":886,"x_min":14,"x_max":872,"o":"m 872 7 q 869 0 872 0 l 739 0 q 732 3 733 0 l 646 220 l 241 220 l 155 3 q 149 0 154 0 l 17 0 q 14 7 14 0 l 378 911 q 380 915 378 913 q 385 917 383 917 l 503 917 q 510 911 507 917 l 872 7 m 593 350 l 443 724 l 294 350 l 593 350 m 602 1214 l 602 1099 l 345 965 l 345 1078 l 602 1214 z "},"Ë":{"ha":749,"x_min":97,"x_max":693,"o":"m 693 4 q 688 -1 693 -1 l 104 -1 q 100 1 102 -1 q 97 4 98 3 l 97 911 q 99 914 98 912 q 103 916 100 916 l 665 916 q 671 911 671 916 l 671 790 q 665 785 671 785 l 239 785 l 228 783 l 228 564 l 551 564 q 555 559 555 564 l 555 439 q 549 433 555 433 l 232 433 q 228 427 228 433 l 228 129 l 689 129 q 693 125 693 129 l 693 4 m 608 1047 q 585 1024 595 1034 q 568 1007 574 1014 q 549 987 561 1000 q 526 965 536 975 l 519 965 q 471 1014 500 984 q 440 1044 442 1043 q 439 1051 439 1046 l 522 1135 q 529 1133 528 1135 l 608 1054 l 608 1047 m 328 1047 q 287 1007 315 1035 q 244 965 258 979 l 237 965 q 191 1013 219 984 q 158 1044 162 1042 q 157 1051 157 1046 l 240 1135 q 249 1133 248 1135 l 328 1054 l 328 1047 z "},"È":{"ha":827,"x_min":175,"x_max":771,"o":"m 771 4 q 765 -1 771 -1 l 180 -1 q 177 1 178 -1 q 175 4 176 3 l 175 911 q 177 914 176 912 q 180 916 178 916 l 743 916 q 747 911 747 916 l 747 790 q 742 785 747 785 l 317 785 l 306 783 l 306 564 l 628 564 q 633 559 633 564 l 633 439 q 627 433 633 433 l 310 433 q 306 427 306 433 l 306 129 l 766 129 q 771 125 771 129 l 771 4 m 304 1215 l 304 1100 l 559 966 l 559 1079 l 304 1215 z "},"Í":{"ha":313,"x_min":41,"x_max":298,"o":"m 207 5 q 201 0 207 0 l 81 0 q 77 4 77 0 l 77 911 q 82 917 77 917 l 201 917 q 207 913 207 917 l 207 5 m 298 1214 l 297 1099 l 41 965 l 41 1078 l 298 1214 z "},"Î":{"ha":467,"x_min":7,"x_max":460,"o":"m 297 5 q 292 0 297 0 l 172 0 q 167 4 167 0 l 167 911 q 172 917 167 917 l 293 917 q 297 913 297 917 l 297 5 m 233 1203 l 460 958 l 319 957 l 233 1051 l 147 957 l 7 957 l 233 1203 z "},"Ï":{"ha":410,"x_min":7,"x_max":403,"o":"m 272 5 q 267 0 272 0 l 147 0 q 142 4 142 0 l 142 911 q 147 917 142 917 l 268 917 q 272 913 272 917 l 272 5 m 403 1029 q 321 946 347 974 l 314 946 q 233 1026 313 946 q 232 1032 232 1028 l 315 1116 q 317 1117 316 1116 q 319 1118 318 1118 q 323 1116 321 1118 l 403 1035 l 403 1029 m 176 1029 l 178 1029 q 136 988 157 1009 q 94 946 115 967 l 87 946 q 8 1026 88 946 q 7 1032 7 1028 l 90 1116 q 92 1117 91 1116 q 94 1118 93 1118 q 97 1116 94 1118 l 176 1035 l 176 1029 z "},"Ì":{"ha":326,"x_min":14,"x_max":271,"o":"m 237 5 q 232 0 237 0 l 113 0 q 107 4 107 0 l 107 911 q 113 917 107 917 l 233 917 q 237 913 237 917 l 237 5 m 14 1217 l 14 1101 l 269 968 l 271 1082 l 14 1217 z "},"Ó":{"ha":1025,"x_min":57,"x_max":993,"o":"m 940 237 q 836 102 900 159 q 694 13 772 44 q 529 -20 616 -18 q 395 0 459 -20 q 272 58 330 20 q 169 148 213 96 q 97 262 124 199 q 57 461 57 357 q 87 635 57 551 q 174 782 117 719 q 279 870 222 835 q 402 924 336 906 q 534 942 467 942 q 615 936 575 942 q 782 868 702 923 q 920 730 862 812 q 993 469 993 625 q 940 237 993 338 m 828 599 q 785 673 813 636 q 721 737 757 709 q 644 779 684 764 q 525 800 585 800 q 396 774 458 800 q 290 700 335 749 q 201 461 201 603 q 225 330 201 394 q 318 199 253 256 q 461 127 384 143 q 521 122 489 122 q 749 212 648 122 q 806 284 782 243 q 841 371 829 326 q 852 463 852 417 q 828 599 852 534 m 686 1214 l 686 1099 l 429 965 l 429 1078 l 686 1214 z "},"Ô":{"ha":1025,"x_min":102,"x_max":1038,"o":"m 985 237 q 813 51 926 121 q 574 -20 701 -19 q 439 0 503 -20 q 315 58 374 20 q 212 148 256 96 q 140 262 168 199 q 102 460 102 352 q 132 634 102 551 q 218 782 162 718 q 323 870 267 835 q 446 924 380 906 q 579 942 511 942 q 660 936 618 942 q 826 869 747 923 q 962 730 904 814 q 1038 468 1038 625 q 1024 347 1038 407 q 985 237 1010 287 m 871 599 q 829 672 857 635 q 764 737 800 709 q 689 779 728 765 q 570 800 628 800 q 334 700 428 800 q 286 631 307 671 q 255 547 265 590 q 245 461 245 504 q 268 330 245 393 q 323 238 286 281 q 407 166 360 195 q 504 127 454 138 q 566 122 532 122 q 791 212 692 122 q 850 283 827 243 q 884 368 873 323 q 896 461 896 413 q 871 599 896 534 m 639 996 l 557 1082 l 476 996 l 322 996 l 558 1246 q 559 1243 557 1246 l 794 997 l 639 996 z "},"":{"ha":1054,"x_min":45,"x_max":1010,"o":"m 896 547 q 837 314 896 420 q 675 139 779 207 q 447 54 572 71 q 424 49 439 53 q 396 43 408 45 q 248 32 331 32 l 215 32 l 215 -4 q 177 9 204 -1 q 98 36 151 18 q 45 54 45 54 l 214 113 l 214 75 q 366 97 301 79 q 482 150 431 115 q 570 242 533 185 q 628 378 607 299 l 610 368 q 611 357 610 362 q 611 345 611 353 q 600 339 610 343 q 579 332 589 335 l 575 335 l 564 350 l 543 347 q 541 341 543 345 q 538 332 540 336 q 536 325 537 327 q 505 323 532 323 l 501 323 q 493 347 500 330 l 472 350 q 468 345 470 347 q 463 338 465 342 q 458 332 460 334 q 431 340 446 336 l 427 345 l 427 368 l 408 378 q 511 186 441 260 q 403 121 474 147 q 266 230 325 165 q 173 376 206 295 q 140 547 140 458 q 169 689 140 622 q 247 808 197 756 q 362 889 298 859 q 503 922 427 919 l 511 914 q 406 718 439 842 l 408 717 l 427 728 q 426 740 427 735 q 425 750 426 745 l 429 754 q 443 759 432 755 q 457 762 453 762 l 461 760 l 472 745 l 493 747 q 500 771 499 765 q 508 772 505 772 q 518 772 512 772 q 527 772 524 772 q 534 771 530 772 q 543 747 535 767 l 564 745 q 571 755 567 749 q 578 762 576 761 l 582 762 q 606 754 581 762 l 610 751 l 610 728 l 628 717 l 631 720 q 518 922 597 847 q 664 893 595 922 q 784 813 732 865 q 866 692 837 761 q 896 547 896 623 m 1010 54 q 839 -5 1014 54 l 839 32 l 799 31 q 554 65 691 31 q 653 109 615 89 q 840 75 729 80 l 840 113 l 1010 54 m 724 518 q 704 528 712 526 l 704 561 l 704 567 q 724 578 715 574 q 723 585 724 582 q 722 590 723 587 q 699 593 705 590 q 694 611 699 598 q 686 629 690 623 q 701 647 690 632 q 696 657 699 650 q 673 653 684 653 q 668 659 671 656 q 660 669 665 663 q 648 682 654 676 q 652 692 649 687 q 657 703 655 698 q 647 711 650 707 l 628 699 q 595 718 601 717 l 595 742 q 583 745 588 745 q 576 736 579 740 q 570 728 574 733 q 554 730 564 729 q 532 734 544 732 q 528 745 530 741 q 524 757 526 750 l 513 755 q 507 745 510 750 q 504 734 505 740 q 489 732 503 734 q 467 728 474 729 q 460 736 465 732 q 453 745 456 741 q 441 742 447 745 l 441 718 q 408 699 433 716 l 389 711 q 379 703 385 706 q 387 682 387 682 q 377 670 383 678 q 363 653 371 663 l 358 653 l 340 657 l 335 647 q 350 629 348 634 q 345 617 348 627 q 336 593 342 608 q 327 591 334 591 q 314 589 319 590 l 311 578 q 332 567 324 573 q 331 556 332 560 q 330 547 331 552 q 331 538 331 543 q 332 528 332 534 q 311 517 328 528 l 314 505 q 327 504 320 505 q 336 501 334 503 q 350 467 340 481 q 335 449 348 462 q 340 437 336 443 q 363 441 353 441 q 372 429 364 440 q 387 414 380 417 q 379 392 387 411 q 384 388 382 390 q 389 383 386 386 l 408 396 q 425 387 417 391 q 441 376 433 382 l 441 353 q 453 350 447 350 q 459 358 456 354 q 467 368 463 361 q 504 361 479 361 q 508 350 505 356 q 513 339 511 345 l 524 339 q 532 361 531 358 q 570 368 556 361 q 576 359 573 363 q 583 350 579 355 q 595 353 588 350 l 595 376 q 613 387 603 382 q 628 396 623 393 l 647 383 q 657 392 649 385 q 652 403 655 397 q 648 414 649 409 q 664 429 656 417 q 673 441 672 440 q 696 439 682 441 q 701 449 699 442 q 686 467 688 462 q 695 484 691 473 q 699 501 699 495 q 709 504 702 503 q 722 505 716 505 q 724 518 724 510 m 665 488 l 574 488 q 596 511 585 498 q 621 539 608 523 q 633 567 633 556 q 630 578 633 574 q 619 582 627 582 q 608 564 608 582 l 575 564 q 619 607 577 607 q 652 596 638 607 q 665 567 665 585 q 657 542 665 551 q 628 513 650 533 l 665 513 l 665 488 m 561 488 l 467 488 q 508 529 489 508 q 528 567 528 550 q 525 578 528 574 q 515 582 522 582 q 505 577 507 582 q 503 564 503 573 l 469 564 q 483 596 469 585 q 515 607 496 607 q 546 596 533 607 q 558 567 558 585 q 550 540 558 550 q 522 513 543 530 l 561 513 l 561 488 m 458 566 q 445 532 458 538 q 400 525 431 525 l 400 488 l 370 488 l 370 604 l 416 604 q 447 594 435 604 q 458 566 458 585 m 427 564 q 410 579 427 579 l 400 579 l 400 550 l 408 550 q 427 564 427 550 z "},"Ò":{"ha":1025,"x_min":102,"x_max":1038,"o":"m 985 237 q 813 51 926 121 q 574 -20 701 -19 q 439 0 503 -20 q 315 58 374 20 q 212 148 256 96 q 140 262 168 199 q 102 460 102 352 q 132 634 102 551 q 218 782 162 718 q 323 870 267 835 q 446 924 380 906 q 579 942 511 942 q 660 936 618 942 q 826 869 747 923 q 962 730 904 814 q 1038 468 1038 625 q 1024 347 1038 407 q 985 237 1010 287 m 871 599 q 829 672 857 635 q 764 737 800 709 q 689 779 728 765 q 570 800 628 800 q 334 700 428 800 q 286 631 307 671 q 255 547 265 590 q 245 461 245 504 q 268 330 245 393 q 323 238 286 281 q 407 166 360 195 q 504 127 454 138 q 566 122 532 122 q 791 212 692 122 q 850 283 827 243 q 884 368 873 323 q 896 461 896 413 q 871 599 896 534 m 449 1246 l 449 1131 l 705 997 l 705 1109 l 449 1246 z "},"Ú":{"ha":1010,"x_min":83,"x_max":899,"o":"m 899 913 l 899 395 q 867 238 899 313 q 780 107 836 163 q 648 20 724 52 q 490 -12 572 -12 q 333 20 408 -12 q 203 107 258 52 q 115 238 147 163 q 83 395 83 313 l 83 911 q 89 917 83 917 l 210 917 q 214 913 214 917 l 214 396 q 251 257 214 321 q 352 156 288 193 q 490 118 415 118 q 630 156 566 118 q 731 257 694 193 q 768 396 768 321 l 768 911 q 774 917 768 917 l 895 917 q 899 913 899 917 m 688 1214 l 688 1099 l 432 965 l 432 1078 l 688 1214 z "},"Û":{"ha":1010,"x_min":83,"x_max":899,"o":"m 899 913 l 899 395 q 867 238 899 313 q 780 107 836 163 q 648 20 724 52 q 490 -12 572 -12 q 333 20 408 -12 q 203 107 258 52 q 115 238 147 163 q 83 395 83 313 l 83 911 q 89 917 83 917 l 210 917 q 214 913 214 917 l 214 396 q 251 257 214 321 q 352 156 288 193 q 490 118 415 118 q 630 156 566 118 q 731 257 694 193 q 768 396 768 321 l 768 911 q 774 917 768 917 l 895 917 q 899 913 899 917 m 587 964 l 507 1050 l 425 964 l 271 964 l 507 1214 q 510 1210 506 1214 l 743 965 l 587 964 z "},"Ù":{"ha":1010,"x_min":83,"x_max":899,"o":"m 899 913 l 899 395 q 867 238 899 313 q 780 107 836 163 q 648 20 724 52 q 490 -12 572 -12 q 333 20 408 -12 q 203 107 258 52 q 115 238 147 163 q 83 395 83 313 l 83 911 q 89 917 83 917 l 210 917 q 214 913 214 917 l 214 396 q 251 257 214 321 q 352 156 288 193 q 490 118 415 118 q 630 156 566 118 q 731 257 694 193 q 768 396 768 321 l 768 911 q 774 917 768 917 l 895 917 q 899 913 899 917 m 340 1178 l 340 1063 l 597 929 l 597 1042 l 340 1178 z "},"ı":{"ha":313,"x_min":83,"x_max":215,"o":"m 215 611 l 215 4 q 213 2 215 3 q 210 0 212 0 l 89 0 q 85 2 87 1 q 83 5 83 3 l 83 612 l 89 615 l 210 615 l 215 611 z "},"ˆ":{"ha":547,"x_min":47,"x_max":500,"o":"m 273 925 l 500 681 l 359 679 l 273 774 l 186 679 l 47 679 l 273 925 z "},"˜":{"ha":557,"x_min":28,"x_max":529,"o":"m 529 828 q 450 721 503 762 q 351 688 407 688 q 271 701 315 688 q 244 713 265 703 q 214 725 222 722 q 122 745 156 745 q 37 713 76 745 q 31 707 34 707 q 30 708 31 707 q 28 711 28 710 q 106 818 53 776 q 203 850 146 850 q 273 840 233 850 q 309 828 286 837 q 343 814 331 819 q 432 796 393 796 q 518 828 481 796 q 525 832 522 832 q 529 828 529 832 z "},"¯":{"ha":482,"x_min":28,"x_max":454,"o":"m 454 707 l 452 703 l 35 703 q 28 713 28 703 l 28 829 l 32 833 l 449 833 l 454 831 l 454 707 z "},"˘":{"ha":478,"x_min":28,"x_max":450,"o":"m 239 654 q 320 671 281 654 q 389 716 359 687 q 434 784 418 745 q 450 865 450 823 l 330 865 q 304 800 330 827 q 239 774 277 774 q 173 801 199 774 q 147 865 147 827 l 28 865 q 44 784 28 823 q 90 716 60 745 q 158 671 119 687 q 239 654 197 654 z "},"˙":{"ha":227,"x_min":28,"x_max":199,"o":"m 199 745 q 175 722 189 736 q 145 692 161 708 q 115 661 130 675 l 109 661 q 70 701 90 680 q 29 742 50 721 q 28 747 28 743 l 111 831 q 113 832 112 831 q 115 833 114 833 q 118 831 115 833 l 197 750 q 198 747 198 749 q 199 745 199 746 z "},"˚":{"ha":301,"x_min":28,"x_max":273,"o":"m 273 799 q 237 711 273 747 q 150 675 201 675 q 64 712 100 675 q 28 799 28 749 q 44 860 28 831 q 89 904 61 888 q 150 921 117 921 q 212 905 184 921 q 257 860 240 888 q 273 799 273 831 m 204 799 q 189 836 204 821 q 150 851 173 851 q 112 836 127 851 q 97 799 97 821 q 112 761 97 778 q 150 745 127 745 q 189 761 173 745 q 204 799 204 777 z "},"¸":{"ha":319,"x_min":28,"x_max":292,"o":"m 292 -85 q 257 -179 292 -140 q 167 -240 223 -218 q 83 -254 132 -254 q 36 -250 60 -254 q 28 -244 28 -250 l 28 -129 q 44 -131 31 -129 q 77 -136 58 -134 q 115 -138 95 -138 q 161 5 161 -123 l 292 3 l 292 -85 z "},"˝":{"ha":407,"x_min":14,"x_max":393,"o":"m 187 825 l 114 657 l 107 654 l 17 654 l 14 665 l 92 829 l 186 829 l 187 825 m 393 825 l 318 657 l 313 654 l 221 654 l 220 665 l 296 829 l 390 829 l 393 825 z "},"˛":{"ha":319,"x_min":28,"x_max":292,"o":"m 28 -85 q 44 -152 28 -121 q 89 -204 60 -182 q 154 -240 117 -227 q 236 -254 189 -254 q 283 -250 260 -254 q 292 -244 292 -250 l 292 -129 q 271 -132 281 -131 q 243 -136 261 -134 q 204 -138 224 -138 q 158 5 158 -122 l 28 3 l 28 -85 z "},"ˇ":{"ha":547,"x_min":47,"x_max":501,"o":"m 283 684 q 271 677 281 677 l 267 684 l 47 920 l 187 920 l 273 827 l 361 920 l 501 920 l 283 684 z "}}}
